<?xml version="1.0" standalone="yes"?>

<svg version="1.1" viewBox="0.0 0.0 720.0 540.0" fill="none" stroke="none" stroke-linecap="square" stroke-miterlimit="10" xmlns="http://www.w3.org/2000/svg" xmlns:xlink="http://www.w3.org/1999/xlink"><clipPath id="p.0"><path d="m0 0l720.0 0l0 540.0l-720.0 0l0 -540.0z" clip-rule="nonzero"></path></clipPath><g clip-path="url(#p.0)"><path fill="#000000" fill-opacity="0.0" d="m0 0l720.0 0l0 540.0l-720.0 0z" fill-rule="nonzero"></path><path fill="#f38219" d="m27.096676 164.38423c0 0 0 0 0 0l0 0c0 0 0 0 0 0zm69.04404 -6.8553467c-0.05595398 0.0022277832 -0.111320496 0.008453369 -0.1661148 0.018676758c-0.3936615 0.015609741 -0.7922516 0.13565063 -1.1957626 0.36010742c-0.40369415 0.21994019 -0.59200287 0.6715393 -0.5649185 1.3547974c0.020271301 0.511322 0.08979797 0.9504242 0.20857239 1.317337c0.11878204 0.3669281 0.32066345 0.6580353 0.60565186 0.8733368c0.2849884 0.21530151 0.6122589 0.35414124 0.9818268 0.41654968c0.373909 0.057678223 0.79389954 0.07728577 1.2599564 0.05882263l0.2579193 -0.010223389c1.0130768 -0.16705322 1.4658432 -0.69259644 1.358284 -1.5765991c-0.056861877 -0.4056244 -0.22494507 -0.8159027 -0.5042496 -1.230835c-0.27931213 -0.4149475 -0.6502075 -0.79678345 -1.1126938 -1.1455383c-0.39935303 -0.3049469 -0.7755127 -0.4504242 -1.1284714 -0.43643188zm-12.862358 13.568726c0 0 0 0 0 0l0 0c0 0 0 0 0 0zm-42.077118 10.967606c0 0 0 0 0 0l0 0c0 0 0 0 0 0zm27.426186 -11.455566c1.4182739 0.45135498 2.5397034 0.95980835 3.3642883 1.5253448c0.82910156 0.56536865 1.3907928 1.1299896 1.6850662 1.6938934c0.29878998 0.56370544 0.4211197 1.1344299 0.36697388 1.712143c-0.054138184 0.57769775 -0.24620056 1.163147 -0.57618713 1.7563171c-0.32997894 0.5931854 -0.7654724 1.1542816 -1.3064651 1.6833038c-0.54100037 0.5290375 -1.1097488 0.98664856 -1.7062607 1.3728485c-0.5919876 0.3860321 -1.171814 0.67866516 -1.7394791 0.8779144c-0.45181274 0.1585846 -0.84334564 0.2444458 -1.1746063 0.25758362c-0.08493805 0.0033569336 -0.16591644 0.001953125 -0.24292755 -0.0042419434c-0.77827454 0.030838013 -1.5012131 -0.08552551 -2.1688004 -0.34910583c-0.6632385 -0.2682953 -1.2443657 -0.63726807 -1.7433739 -1.1069489c-0.49448395 -0.46984863 -0.8907471 -1.0342407 -1.1887856 -1.693161c-0.29351425 -0.6591034 -0.4547081 -1.3529053 -0.48358536 -2.0814056c-0.034080505 -0.85972595 0.1529808 -1.6285248 0.5611839 -2.306366c0.41254425 -0.68255615 0.95817566 -1.266159 1.6368942 -1.7507935c0.67871094 -0.4846344 1.4545898 -0.86209106 2.3276138 -1.1323547c0.8728409 -0.27479553 1.6689911 -0.42645264 2.3884506 -0.4549713zm-26.446724 -7.0956573c0.13682175 0.021774292 0.6766548 0.20657349 1.619503 0.5544281c0.94737244 0.34765625 1.8869286 0.78401184 2.8186722 1.3090363c0.93608856 0.52033997 1.8230095 1.1151276 2.6607628 1.784378c0.8375778 0.6647186 1.5711517 1.3924866 2.2007217 2.1832886c0.6293907 0.7862854 1.1328888 1.5979462 1.5105019 2.4349823c0.3821373 0.8368683 0.59033203 1.6874237 0.6245918 2.5516815c0.04322815 1.0904999 -0.20121384 2.1266785 -0.73332596 3.1085663c-0.5321083 0.98187256 -1.2470741 1.8667603 -2.1449013 2.6546478c-0.89782715 0.78790283 -1.9041023 1.4124146 -3.0188217 1.8735504c-1.1103706 0.4564209 -2.2108078 0.70625305 -3.3013039 0.7494812l-0.15610886 0.0061950684c-0.15089798 -0.0098724365 -0.46801758 -0.06506348 -0.95135117 -0.16558838l0 0c0.19156265 -0.05130005 0.38901138 -0.15678406 0.5923462 -0.31643677c0.2855072 -0.22885132 0.4810753 -0.49719238 0.58670425 -0.8050232c0.10544968 -0.31236267 0.1536026 -0.58392334 0.14445496 -0.81469727c-0.009147644 -0.23075867 -0.016231537 -0.40950012 -0.021255493 -0.53619385c0.1121788 -1.4002991 0.05413437 -2.8074493 -0.1741333 -4.221451c-0.19027328 -1.3701782 -0.44506073 -2.7672577 -0.76436234 -4.1912537c-0.31477737 -1.4241638 -0.63134766 -2.89357 -0.94971085 -4.4082336c-0.31383896 -1.5148468 -0.4948311 -2.7652893 -0.542984 -3.751358zm27.368576 2.9123383c-1.4072418 0.055786133 -2.8066788 0.3083954 -4.198303 0.757843c-1.387291 0.44474792 -2.6414452 1.1040192 -3.7624664 1.9777985c-1.1166801 0.86909485 -2.0125237 1.9356384 -2.6875381 3.1996307c-0.67066956 1.2592773 -0.9732704 2.7147064 -0.9078026 4.3663025c0.055244446 1.3936615 0.3456459 2.6601715 0.87120056 3.79953c0.5298996 1.1346436 1.2403183 2.078598 2.131256 2.8318481c0.89546204 0.753067 1.9241982 1.3241119 3.086216 1.7131195c1.166359 0.38430786 2.4260101 0.5496521 3.778946 0.49601746c1.316742 -0.052200317 2.5979004 -0.315979 3.843483 -0.7913666c1.2455826 -0.4753723 2.3566666 -1.1425629 3.333252 -2.0015717c0.9811096 -0.85917664 1.7487106 -1.9025116 2.3028107 -3.1299896c0.5540924 -1.227478 0.80101013 -2.6013947 0.74074554 -4.12175c-0.026542664 -0.66967773 -0.14421844 -1.3516083 -0.35301208 -2.0457916c-0.20445251 -0.69888306 -0.4897232 -1.3787079 -0.8558121 -2.0394592c-0.3660965 -0.6607666 -0.79698944 -1.2985535 -1.2926865 -1.9133759c-0.49570465 -0.61483765 -1.0633698 -1.1588287 -1.7030106 -1.6320038c-0.63510895 -0.4733429 -1.3091736 -0.84317017 -2.022194 -1.1094818c-0.7131958 -0.2708435 -1.4815598 -0.38993835 -2.3050842 -0.3572998zm8.522293 -8.899628c-0.48130798 0.019088745 -0.9104843 0.59910583 -1.2875214 1.7400818c0.1723938 1.2621307 0.40061188 2.5605621 0.68465424 3.8952942c0.2885666 1.3345642 0.58924866 2.6890411 0.90205383 4.063431c0.31262207 1.369873 0.6094971 2.74263 0.8906326 4.118271c0.28546906 1.3709412 0.49043274 2.6544342 0.61489105 3.8504791c3.5858154E-4 0.009048462 0.004753113 0.11991882 0.013183594 0.33258057c0.0082473755 0.20814514 0.024810791 0.45448303 0.049690247 0.7390137c0.024871826 0.28453064 0.04260254 0.5602722 0.05318451 0.82724c0.010398865 0.26245117 0.018829346 0.47511292 0.025291443 0.63801575c0.006454468 0.16288757 0.016052246 0.40496826 0.028785706 0.72624207c0.012557983 0.31674194 0.017967224 0.6246948 0.016227722 0.9238739c-0.001739502 0.29917908 0.0021514893 0.5686798 0.011657715 0.8085022c0.00932312 0.23529053 0.014793396 0.37330627 0.016410828 0.41403198c0.0014343262 0.036193848 -0.005126953 0.15655518 -0.019676208 0.36106873c-0.01473999 0.19999695 -0.04386902 0.43681335 -0.08740997 0.7104645c-0.043533325 0.27363586 -0.075935364 0.5423126 -0.097206116 0.806015c-0.021453857 0.25917053 -0.030471802 0.43174744 -0.027069092 0.51771545c0.029777527 0.75112915 0.30216217 1.2773743 0.81716156 1.5787354c0.519516 0.30117798 1.0394592 0.44145203 1.5598221 0.42082214c0.841629 -0.033355713 1.3445511 -0.37960815 1.5087662 -1.0387115c0.16403961 -0.6636505 0.2637024 -1.2363586 0.29898834 -1.7181549c0.03528595 -0.481781 0.08300781 -0.8213043 0.14316559 -1.01857c0.06451416 -0.20196533 0.108078 -0.30340576 0.13069916 -0.30429077c0.036193848 -0.0014343262 0.25659943 0.12805176 0.6612091 0.38845825c0.5674591 0.3672638 1.2291107 0.76704407 1.9849625 1.1993408c0.7602005 0.42759705 1.5716248 0.83277893 2.4342804 1.2155151c0.86265564 0.38275146 1.6604996 0.55960083 2.3935242 0.5305481l1.0452499 -0.04144287c0.42533875 -0.016860962 0.8645477 -0.084121704 1.3176117 -0.20178223c0.45288086 -0.12219238 0.88581085 -0.3478241 1.2987747 -0.67689514c0.41278076 -0.3336029 0.60536194 -0.8488159 0.57774353 -1.5456543c-0.008972168 -0.22624207 -0.049301147 -0.55773926 -0.1210022 -0.99450684c-0.07169342 -0.43675232 -0.4635315 -0.7180786 -1.1755142 -0.8439331c-0.4479599 0.017745972 -0.9770889 -0.011123657 -1.5873642 -0.086639404c-0.6557083 -0.07824707 -1.3539352 -0.20011902 -2.0946808 -0.3656311c-0.740921 -0.17004395 -1.474144 -0.3743744 -2.1996536 -0.6130066c-0.72569275 -0.2431488 -1.3694687 -0.53486633 -1.9313278 -0.8751526c-0.56185913 -0.3403015 -1.0018234 -0.69221497 -1.31987 -1.0557556c-0.31352997 -0.363739 -0.478096 -0.74243164 -0.49370575 -1.1360931c-0.010398865 -0.2624359 0.09516144 -0.6291809 0.3166809 -1.100235c0.22586823 -0.47573853 0.52695465 -0.9975281 0.9032669 -1.5653534c0.38065338 -0.57250977 0.83045197 -1.1727142 1.3494034 -1.8005676c0.51877594 -0.63238525 1.0407944 -1.2399597 1.5660629 -1.8227539c0.5296173 -0.5874939 1.0225677 -1.1282196 1.4788437 -1.6221619c0.45627594 -0.49394226 0.9495621 -0.9689636 1.4798584 -1.4250488c0.03679657 -0.67219543 -0.040367126 -1.2469635 -0.23150635 -1.7243195c-0.18661499 -0.4775238 -0.6758499 -0.70059204 -1.4676971 -0.6692047c-0.7873306 0.031219482 -1.4577255 0.26852417 -2.011177 0.7119446c-0.55345154 0.44340515 -1.0277481 0.94033813 -1.4228668 1.4907684c-0.39078522 0.5457306 -0.7532501 1.1197968 -1.0873947 1.7222137c-0.3341446 0.60240173 -0.6594925 1.1410065 -0.9760361 1.6158142c-0.31654358 0.47480774 -0.6193924 0.8380432 -0.90852356 1.0897064c-0.25367737 0.21669006 -0.52658844 0.34355164 -0.8187485 0.38058472l0 0c-0.08721161 -0.4063263 -0.20625305 -0.9889679 -0.35712433 -1.7479553c-0.23130035 -1.0331879 -0.4879074 -2.1333618 -0.7698364 -3.3005066c-0.2775879 -1.1718445 -0.5930023 -2.3263245 -0.9462509 -3.46344c-0.34890747 -1.1418304 -0.70773315 -2.1337128 -1.0764694 -2.975647c-0.3687439 -0.84191895 -0.89501953 -1.4850006 -1.5788345 -1.9292297c-0.1647644 -0.1088562 -0.32418823 -0.16023254 -0.47827148 -0.15412903zm20.059822 6.5838013c-1.2579117 0.049865723 -1.7629776 0.79953 -1.5151749 2.2490082c0.0028686523 0.072402954 0.010131836 0.255661 0.02178955 0.54977417c0.011482239 0.28959656 0.01689148 0.59754944 0.016235352 0.92388916c-6.637573E-4 0.32632446 0.005104065 0.64334106 0.017303467 0.95103455c0.012016296 0.30316162 0.020179749 0.50904846 0.024482727 0.61764526c0.012191772 0.30769348 0.048461914 0.8795471 0.10878754 1.7155762c0.060333252 0.83602905 0.14542389 1.7821045 0.25526428 2.8382416c0.11437225 1.055954 0.26239014 2.1604156 0.44405365 3.3134003c0.18618774 1.1528168 0.3959427 2.2140503 0.6292496 3.1837158c0.23783875 0.9694824 0.5448456 1.8546448 0.9210205 2.655487c0.37618256 0.80085754 0.93305206 1.1866608 1.6706009 1.1574249c0.7873306 -0.031219482 1.3480682 -0.34802246 1.6822128 -0.9504242c0.33415222 -0.60240173 0.49046326 -1.1750946 0.46894073 -1.7180786c-0.057937622 -1.4615479 -0.23091125 -2.8527985 -0.5189438 -4.1737976c-0.288208 -1.3255157 -0.5867386 -2.6256866 -0.89559174 -3.900528c-0.30886078 -1.2748413 -0.5882187 -2.5485992 -0.83807373 -3.8212433c-0.24533081 -1.2728271 -0.3553238 -2.675644 -0.3299713 -4.2084656c-0.3377304 -0.51686096 -0.6693573 -0.87986755 -0.9948883 -1.089035c-0.32118225 -0.21386719 -0.710289 -0.31173706 -1.1672974 -0.29362488zm-62.6974 -5.3052063c-0.0542984 0.0021514893 -0.29774475 0.034469604 -0.73034286 0.09693909c-0.4327736 0.057937622 -0.96030045 0.12643433 -1.5825806 0.20549011c-0.6177597 0.07887268 -1.2928143 0.1985321 -2.0251675 0.35899353c-0.7325344 0.15592957 -1.4159431 0.350708 -2.0502243 0.58432007c-0.63428307 0.23361206 -1.2220821 0.5537567 -1.7633953 0.96043396c-0.53697014 0.40197754 -0.7919121 0.9445801 -0.7648277 1.6278381l0.006456375 0.16290283c0.0055599213 0.14027405 0.03907776 0.2998352 0.1005497 0.4786682c0.061473846 0.17884827 0.115083694 0.33081055 0.16082954 0.45588684c0.050092697 0.12037659 0.10072136 0.2543335 0.1518898 0.40185547c0.025907516 0.06666565 0.07907295 0.14852905 0.1594944 0.24560547c-0.020429611 -0.018997192 -0.041671753 -0.03868103 -0.063726425 -0.059051514l0 0c0.014528275 0.3665161 0.3385353 0.5372162 0.9720173 0.5121002c0.16289711 -0.006454468 0.33078575 -0.058425903 0.50366974 -0.1559143l0.06679726 -0.029846191c0.25325394 -0.12786865 0.519186 -0.27890015 0.79779625 -0.45309448c0.28313637 -0.17437744 0.73848534 -0.3487854 1.3660507 -0.5232086c0.6275635 -0.17443848 1.5068855 -0.34298706 2.63797 -0.505661c1.1262589 -0.16197205 2.5150414 -0.27593994 4.1663437 -0.34188843l1.5258789E-5 0c5.722046E-5 0.044189453 0.06389618 0.21839905 0.19151688 0.52264404c0.16999054 0.4011383 0.3288231 0.86390686 0.4765091 1.3882904c0.1475029 0.51986694 0.27202225 1.0315857 0.37355804 1.535141c0.1015358 0.5035553 0.18871307 0.9306488 0.2615242 1.28125c0.275692 0.8954773 0.4870987 1.8841248 0.6342163 2.965973c0.14694214 1.0773163 0.27703857 2.1870422 0.3902893 3.3291473c0.11307526 1.1375732 0.20444107 2.2420197 0.27409744 3.3133392c0.06966019 1.0713196 0.18008423 2.0277405 0.33127213 2.869217c0.13915634 0.748703 0.3807068 1.4262085 0.7246475 2.032547l0 0c-0.0017051697 -4.272461E-4 -0.0034103394 -8.392334E-4 -0.0051193237 -0.0012664795c-0.6545906 -0.1643982 -1.2836685 -0.31394958 -1.8872299 -0.44863892c-0.6037407 -0.13922119 -1.0119476 -0.20462036 -1.224617 -0.19618225c-0.705883 0.02796936 -1.1194534 0.28456116 -1.2407112 0.76976013c-0.12125778 0.48519897 -0.17596817 0.877121 -0.16413116 1.175766c0.022064209 0.5565491 0.20632172 1.0319061 0.55278397 1.4260559c0.34645844 0.39414978 0.7255287 0.6963501 1.1372108 0.90663147c0.41168213 0.21028137 0.8085365 0.3894348 1.1905594 0.53744507c0.3863678 0.14329529 0.7262306 0.25672913 1.0195885 0.340271c1.3249512 0.26924133 2.6661568 0.37696838 4.0236244 0.3231659c1.3574638 -0.05381775 2.677246 -0.25794983 3.959343 -0.6124115c1.2821007 -0.35447693 2.491684 -0.88053894 3.6287498 -1.5782166c1.1370659 -0.6976929 2.127491 -1.5504456 2.971283 -2.558258c0.84378815 -1.0078278 1.4888992 -2.1686707 1.9353409 -3.4825134c0.45096207 -1.3140259 0.6446991 -2.7719421 0.58120346 -4.373749c-0.06959534 -1.755661 -0.47597504 -3.375595 -1.2191391 -4.859833c-0.74316406 -1.4842224 -1.7042084 -2.805725 -2.8831444 -3.9644928c-1.1789322 -1.158783 -2.5127563 -2.166397 -4.0014725 -3.0228424c-1.4888992 -0.8609772 -3.0373993 -1.5677643 -4.6455 -2.1203766c-1.6081047 -0.5526123 -3.2330017 -0.95726013 -4.874695 -1.2139587c-1.6373444 -0.26139832 -3.1777382 -0.36349487 -4.621174 -0.3062744z" fill-rule="evenodd"></path><path fill="#f38219" d="m122.65435 156.1161l2.9550781 8.523102l8.993202 -0.35647583l-7.058235 5.439453l3.1162186 8.129227l-7.320137 -4.59758l-6.9584503 5.041214l2.4748688 -8.221695l-7.344742 -4.8753357l8.871033 -0.3516388l2.271164 -8.73027zm-0.3876953 -9.780533l-4.2641754 15.559677l-16.242065 0.64382935l13.449646 8.8276825l-4.6335907 15.32959l12.89901 -9.865341l13.63942 8.813385l-5.8324585 -14.914734l12.708694 -9.8645935l-16.242065 0.64382935l-5.4824142 -15.173325z" fill-rule="evenodd"></path><path fill="#f38219" d="m144.13727 159.7448c0 0 0 0 0 0l0 0c0 0 0 0 0 0zm69.04405 -6.8553314c-0.05595398 0.0022125244 -0.111328125 0.00843811 -0.16610718 0.018676758c-0.39367676 0.015594482 -0.79226685 0.13563538 -1.1957703 0.36010742c-0.40368652 0.21994019 -0.59199524 0.6715393 -0.5649109 1.3547974c0.020263672 0.51130676 0.089782715 0.9504242 0.20857239 1.317337c0.118774414 0.36691284 0.32066345 0.65802 0.6056366 0.87332153c0.2849884 0.21530151 0.61227417 0.3541565 0.9818268 0.41654968c0.37391663 0.05769348 0.79389954 0.077301025 1.259964 0.05882263l0.2579193 -0.010223389c1.0130768 -0.16705322 1.4658356 -0.6925812 1.3582764 -1.5765839c-0.056854248 -0.4056244 -0.22494507 -0.81591797 -0.50424194 -1.2308502c-0.27931213 -0.41493225 -0.6502075 -0.79678345 -1.1127014 -1.1455383c-0.39935303 -0.3049469 -0.7755127 -0.45040894 -1.1284637 -0.43641663zm-12.86235 13.56871c0 0 0 0 0 0l0 0c0 0 0 0 0 0zm-42.077118 10.967606c0 0 0 0 0 0l0 0c0 0 0 0 0 0zm27.426178 -11.455566c1.4182739 0.45137024 2.5397034 0.9598236 3.3642883 1.5253601c0.82910156 0.5653534 1.3907928 1.1299744 1.6850586 1.6938782c0.2987976 0.5637207 0.42111206 1.1344299 0.36698914 1.712143c-0.054153442 0.577713 -0.24621582 1.163147 -0.5762024 1.7563324c-0.3299713 0.59317017 -0.7654724 1.1542664 -1.3064575 1.6833038c-0.54100037 0.5290222 -1.1097565 0.9866333 -1.7062683 1.3728485c-0.59198 0.38601685 -1.171814 0.67866516 -1.7394714 0.8779144c-0.451828 0.1585846 -0.8433533 0.2444458 -1.1746063 0.25756836c-0.08493042 0.0033721924 -0.16590881 0.001953125 -0.24293518 -0.0042419434c-0.77827454 0.030853271 -1.5012054 -0.08552551 -2.1687927 -0.34910583c-0.6632385 -0.26828003 -1.2443695 -0.63726807 -1.7433777 -1.1069489c-0.49447632 -0.46984863 -0.8907471 -1.0342407 -1.1887817 -1.693161c-0.29351807 -0.65908813 -0.4547119 -1.35289 -0.48358154 -2.0814056c-0.034088135 -0.85972595 0.15296936 -1.6285095 0.5611725 -2.306366c0.41255188 -0.68255615 0.95817566 -1.266159 1.6369019 -1.7507935c0.67871094 -0.4846344 1.4545898 -0.8620758 2.3276062 -1.1323547c0.8728485 -0.27479553 1.6690063 -0.42645264 2.3884583 -0.4549713zm-26.446732 -7.0956573c0.13682556 0.021774292 0.67666626 0.20658875 1.6195068 0.5544281c0.94737244 0.3476715 1.8869324 0.78401184 2.8186798 1.3090515c0.93608093 0.5203247 1.822998 1.1151123 2.6607513 1.7843628c0.83758545 0.6647339 1.5711517 1.3924866 2.2007294 2.1832886c0.6293793 0.7862854 1.1328888 1.5979462 1.510498 2.4349976c0.3821411 0.8368683 0.59033203 1.6874237 0.624588 2.5516815c0.04322815 1.0904846 -0.2012024 2.1266785 -0.73332214 3.108551c-0.5321045 0.98187256 -1.2470856 1.8667603 -2.1448975 2.654663c-0.89782715 0.78790283 -1.9040985 1.4124146 -3.0188293 1.8735504c-1.1103668 0.4564209 -2.2108002 0.70625305 -3.3013 0.74946594l-0.15611267 0.0061950684c-0.15089417 -0.009857178 -0.46800232 -0.06506348 -0.9513397 -0.16558838l0 0c0.19155884 -0.05130005 0.38900757 -0.1567688 0.5923462 -0.31643677c0.2855072 -0.22885132 0.4810791 -0.49719238 0.58670044 -0.8050232c0.10545349 -0.31236267 0.15359497 -0.58392334 0.14445496 -0.814682c-0.009155273 -0.23077393 -0.016235352 -0.40950012 -0.021255493 -0.5362091c0.11216736 -1.4002991 0.054122925 -2.8074493 -0.1741333 -4.2214355c-0.1902771 -1.3701935 -0.44506836 -2.767273 -0.7643585 -4.1912537c-0.31478882 -1.4241638 -0.63134766 -2.8935852 -0.9497223 -4.4082336c-0.31384277 -1.5148468 -0.49484253 -2.7653046 -0.542984 -3.7513733zm27.368576 2.9123535c-1.4072418 0.055770874 -2.8066711 0.3083954 -4.198303 0.757843c-1.3872833 0.44473267 -2.641449 1.1040039 -3.7624664 1.9777985c-1.116684 0.8690796 -2.0125275 1.9356232 -2.6875305 3.1996155c-0.67066956 1.2592773 -0.9732666 2.7147217 -0.9078064 4.3663025c0.055252075 1.3936615 0.34565735 2.6601715 0.87120056 3.79953c0.5299072 1.1346588 1.2403259 2.078598 2.131256 2.8318481c0.89546204 0.7530823 1.9242096 1.3241119 3.0862122 1.7131348c1.1663666 0.3842926 2.4260254 0.54963684 3.778946 0.4960022c1.316742 -0.05218506 2.5979004 -0.315979 3.8434906 -0.7913666c1.245575 -0.4753723 2.3566742 -1.1425629 3.333252 -2.0015717c0.9811096 -0.85917664 1.7487183 -1.9025116 2.3028107 -3.1299744c0.5540924 -1.227478 0.80101013 -2.6013947 0.7407379 -4.12175c-0.026535034 -0.669693 -0.14421082 -1.3516235 -0.35301208 -2.045807c-0.20445251 -0.69888306 -0.48971558 -1.3787079 -0.85580444 -2.0394592c-0.36610413 -0.66075134 -0.7969818 -1.2985535 -1.2926941 -1.9133759c-0.49569702 -0.61483765 -1.0633698 -1.1588287 -1.7030029 -1.6319885c-0.6351166 -0.4733429 -1.3091736 -0.84317017 -2.0222015 -1.1094971c-0.7131958 -0.2708435 -1.4815521 -0.38993835 -2.3050842 -0.35728455zm8.522308 -8.899628c-0.48132324 0.019073486 -0.91049194 0.59910583 -1.2875214 1.7400665c0.1723938 1.2621307 0.40060425 2.5605621 0.6846466 3.8953094c0.28855896 1.3345642 0.58924866 2.6890411 0.90205383 4.063431c0.31262207 1.3698578 0.6094971 2.7426147 0.890625 4.1182556c0.28547668 1.3709412 0.49043274 2.6544495 0.6148987 3.8504791c3.5095215E-4 0.009063721 0.0047454834 0.11991882 0.013183594 0.33258057c0.008255005 0.20814514 0.024810791 0.45448303 0.049682617 0.7390137c0.024871826 0.28453064 0.04260254 0.5602722 0.05319214 0.82725525c0.010406494 0.2624359 0.018829346 0.47511292 0.025283813 0.6380005c0.006454468 0.16290283 0.016052246 0.40498352 0.028793335 0.72624207c0.012557983 0.31674194 0.017959595 0.6247101 0.016220093 0.92388916c-0.0017242432 0.29917908 0.0021514893 0.5686798 0.011657715 0.8085022c0.00932312 0.23529053 0.014801025 0.37329102 0.016418457 0.41401672c0.0014343262 0.036209106 -0.005126953 0.15655518 -0.019683838 0.36108398c-0.01473999 0.19998169 -0.04386902 0.4367981 -0.087402344 0.7104492c-0.043533325 0.27365112 -0.07594299 0.5423126 -0.097213745 0.806015c-0.021438599 0.25917053 -0.030471802 0.43174744 -0.027053833 0.51771545c0.029769897 0.75112915 0.30215454 1.2773743 0.81715393 1.5787354c0.519516 0.30117798 1.039444 0.44145203 1.5598145 0.42082214c0.841629 -0.033355713 1.3445587 -0.3795929 1.5087738 -1.0387115c0.16403198 -0.66363525 0.2637024 -1.2363586 0.2989807 -1.7181396c0.03529358 -0.48179626 0.08300781 -0.8213196 0.14317322 -1.0185852c0.0644989 -0.20196533 0.108062744 -0.3033905 0.13069153 -0.30429077c0.036209106 -0.0014343262 0.25660706 0.12805176 0.6612091 0.3884735c0.56747437 0.36724854 1.229126 0.7670288 1.9849701 1.1993408c0.76020813 0.42759705 1.5716248 0.8327637 2.4342804 1.2155151c0.8626404 0.38275146 1.660492 0.5595856 2.3935242 0.53053284l1.0452423 -0.041427612c0.42533875 -0.016860962 0.8645477 -0.084121704 1.3176117 -0.20179749c0.45289612 -0.122177124 0.8858185 -0.34780884 1.2987823 -0.67689514c0.41278076 -0.3336029 0.60536194 -0.8488159 0.57774353 -1.5456543c-0.008972168 -0.22624207 -0.049301147 -0.55773926 -0.1210022 -0.99450684c-0.07170105 -0.43675232 -0.4635315 -0.71806335 -1.1755219 -0.8439331c-0.44795227 0.01776123 -0.9770813 -0.011123657 -1.5873566 -0.086639404c-0.65571594 -0.07823181 -1.3539429 -0.20011902 -2.0946808 -0.3656311c-0.740921 -0.17004395 -1.4741364 -0.3743744 -2.1996613 -0.61299133c-0.72569275 -0.24316406 -1.369461 -0.5348816 -1.9313202 -0.87516785c-0.56185913 -0.34028625 -1.0018158 -0.69221497 -1.31987 -1.0557556c-0.3135376 -0.36372375 -0.47810364 -0.7424164 -0.49371338 -1.1360779c-0.010391235 -0.26245117 0.09515381 -0.62919617 0.3166809 -1.100235c0.22587585 -0.47575378 0.5269623 -0.9975281 0.90327454 -1.5653534c0.380661 -0.572525 0.8304596 -1.1727142 1.3493958 -1.8005829c0.51878357 -0.63237 1.040802 -1.2399597 1.5660706 -1.8227539c0.5296173 -0.5874939 1.0225677 -1.1282043 1.478836 -1.6221466c0.45628357 -0.49395752 0.9495697 -0.9689636 1.4798584 -1.4250641c0.0368042 -0.67219543 -0.040359497 -1.2469635 -0.23150635 -1.7243042c-0.18659973 -0.4775238 -0.675827 -0.7006073 -1.4676971 -0.6692047c-0.787323 0.031204224 -1.4577179 0.2685089 -2.0111694 0.7119293c-0.55345154 0.4434204 -1.0277405 0.94033813 -1.4228668 1.4907837c-0.3907776 0.5457306 -0.75323486 1.1197968 -1.0873871 1.7221985c-0.33415222 0.60240173 -0.6595001 1.1410065 -0.9760437 1.6158295c-0.31655884 0.47480774 -0.6194 0.8380432 -0.90852356 1.0896912c-0.25367737 0.21669006 -0.52659607 0.34355164 -0.81874084 0.38058472l0 0c-0.08721924 -0.40631104 -0.20625305 -0.9889679 -0.35713196 -1.7479553c-0.23130798 -1.0331879 -0.48791504 -2.1333466 -0.7698364 -3.3004913c-0.2775879 -1.1718445 -0.5930023 -2.3263397 -0.94625854 -3.4634552c-0.3488922 -1.1418304 -0.7077179 -2.1337128 -1.0764618 -2.9756317c-0.3687439 -0.8419342 -0.89501953 -1.4850159 -1.5788269 -1.9292297c-0.16477966 -0.10887146 -0.3242035 -0.1602478 -0.47827148 -0.15412903zm20.059814 6.583786c-1.2579193 0.049865723 -1.76297 0.7995453 -1.5151825 2.2490234c0.0028686523 0.072387695 0.010147095 0.25564575 0.02180481 0.54977417c0.011474609 0.2895813 0.01687622 0.59754944 0.016220093 0.9238739c-6.5612793E-4 0.32633972 0.0051116943 0.64334106 0.017303467 0.95103455c0.012023926 0.30316162 0.020187378 0.50904846 0.024490356 0.61764526c0.012191772 0.30769348 0.048461914 0.8795471 0.108795166 1.7155762c0.060317993 0.83602905 0.14541626 1.7821045 0.25526428 2.8382416c0.114364624 1.055954 0.26237488 2.160431 0.44404602 3.3134155c0.18617249 1.1528015 0.3959198 2.2140503 0.62924194 3.1837006c0.237854 0.9694824 0.54486084 1.8546448 0.9210205 2.6555023c0.37617493 0.8008423 0.93304443 1.1866455 1.6706085 1.1574097c0.787323 -0.031204224 1.3480682 -0.3480072 1.6822205 -0.9504242c0.33413696 -0.60240173 0.490448 -1.1750946 0.4689331 -1.7180786c-0.057937622 -1.4615326 -0.23092651 -2.8527985 -0.5189514 -4.1737823c-0.28819275 -1.3255157 -0.58673096 -2.625702 -0.8955841 -3.9005432c-0.3088684 -1.2748413 -0.58821106 -2.548584 -0.83807373 -3.821228c-0.24533081 -1.2728424 -0.35531616 -2.6756592 -0.3299713 -4.208481c-0.33772278 -0.5168457 -0.6693573 -0.87986755 -0.9948883 -1.0890198c-0.32118225 -0.21386719 -0.7102814 -0.31175232 -1.1672974 -0.29364014zm-62.697403 -5.305191c-0.05430603 0.0021514893 -0.29774475 0.034454346 -0.7303467 0.09692383c-0.43276978 0.057937622 -0.96029663 0.12643433 -1.5825806 0.20549011c-0.6177521 0.07887268 -1.2928162 0.1985321 -2.0251617 0.35899353c-0.7325287 0.15592957 -1.4159393 0.350708 -2.050232 0.58432007c-0.63427734 0.23361206 -1.2220764 0.5537567 -1.763382 0.96043396c-0.5369873 0.40197754 -0.7919159 0.94459534 -0.76483154 1.6278534l0.006454468 0.16288757c0.005554199 0.14027405 0.03907776 0.2998352 0.10055542 0.47868347c0.061462402 0.17883301 0.11508179 0.3307953 0.16082764 0.45588684c0.050079346 0.12037659 0.10070801 0.25431824 0.15188599 0.40185547c0.025909424 0.06665039 0.0790863 0.1485138 0.15948486 0.24559021c-0.020431519 -0.018997192 -0.041671753 -0.03866577 -0.0637207 -0.059051514l0 0c0.014526367 0.3665161 0.3385315 0.5372162 0.9720154 0.5121155c0.16290283 -0.006454468 0.3307953 -0.058441162 0.50367737 -0.15592957l0.06678772 -0.029830933c0.25326538 -0.12788391 0.51919556 -0.2789154 0.7978058 -0.45310974c0.28312683 -0.17437744 0.7384796 -0.34877014 1.3660431 -0.5232086c0.62757874 -0.17443848 1.506897 -0.34298706 2.63797 -0.50564575c1.1262512 -0.16197205 2.51503 -0.27593994 4.1663513 -0.3419037l1.5258789E-5 0c4.5776367E-5 0.044189453 0.06388855 0.2184143 0.19151306 0.5226593c0.16998291 0.4011383 0.32881165 0.86390686 0.47650146 1.3882904c0.14750671 0.51986694 0.2720337 1.0315704 0.37356567 1.5351257c0.10153198 0.50357056 0.1887207 0.9306488 0.2615204 1.28125c0.2756958 0.8954773 0.48710632 1.88414 0.6342163 2.9659882c0.1469574 1.0773163 0.27703857 2.187027 0.3902893 3.329132c0.113082886 1.1375732 0.20445251 2.242035 0.2741089 3.3133545c0.06965637 1.0713196 0.18006897 2.0277252 0.3312683 2.869217c0.13916016 0.74868774 0.3807068 1.4261932 0.72465515 2.0325317c-0.0017089844 -4.119873E-4 -0.0034179688 -8.392334E-4 -0.005126953 -0.0012664795c-0.65460205 -0.1643982 -1.2836761 -0.31393433 -1.8872375 -0.44863892c-0.6037445 -0.13922119 -1.0119324 -0.20462036 -1.2246094 -0.19618225c-0.70588684 0.02798462 -1.119461 0.28457642 -1.2407074 0.76976013c-0.1212616 0.48519897 -0.17597961 0.877121 -0.1641388 1.175766c0.022064209 0.55656433 0.20632935 1.0319214 0.55278015 1.4260559c0.3464508 0.39414978 0.7255249 0.69636536 1.1372223 0.9066467c0.41168213 0.21028137 0.8085327 0.38941956 1.1905518 0.5374298c0.3863678 0.14331055 0.72624207 0.25672913 1.0195923 0.340271c1.3249512 0.2692566 2.666153 0.37696838 4.0236206 0.3231659c1.3574677 -0.05380249 2.677246 -0.25794983 3.9593506 -0.6124115c1.2820892 -0.35446167 2.4916687 -0.88053894 3.6287384 -1.5782166c1.1370697 -0.6976776 2.1275024 -1.5504303 2.971283 -2.558258c0.8437958 -1.0078278 1.4889069 -2.1686707 1.9353485 -3.4825134c0.45095825 -1.3140259 0.6446991 -2.7719421 0.5812073 -4.373749c-0.06959534 -1.7556458 -0.47598267 -3.375595 -1.2191467 -4.8598175c-0.74316406 -1.4842224 -1.7042084 -2.805725 -2.8831482 -3.964508c-1.1789246 -1.158783 -2.5127563 -2.166397 -4.001465 -3.0228424c-1.4889069 -0.8609772 -3.0373993 -1.5677643 -4.645508 -2.1203766c-1.6081085 -0.55259705 -3.2330017 -0.95726013 -4.874695 -1.2139435c-1.6373444 -0.26139832 -3.1777344 -0.36349487 -4.62117 -0.3062744z" fill-rule="evenodd"></path><path fill="#f38219" d="m267.30344 150.74408c-0.05596924 0.0022277832 -0.111328125 0.008453369 -0.16610718 0.018692017c-0.39367676 0.015594482 -0.79226685 0.13563538 -1.1957703 0.36009216c-0.40371704 0.21995544 -0.5920105 0.67155457 -0.5649109 1.3548126c0.020263672 0.51130676 0.089782715 0.9504242 0.20855713 1.317337c0.118774414 0.36691284 0.3206482 0.65802 0.60565186 0.87332153c0.28500366 0.21530151 0.61227417 0.3541565 0.98184204 0.41654968c0.37390137 0.05769348 0.7939148 0.077301025 1.2599487 0.05882263l0.25790405 -0.010223389c1.013092 -0.16705322 1.4658508 -0.6925812 1.3583069 -1.5765991c-0.056884766 -0.4056244 -0.22494507 -0.8159027 -0.50427246 -1.230835c-0.27929688 -0.41493225 -0.6502075 -0.79678345 -1.1126709 -1.1455383c-0.39938354 -0.3049469 -0.7755127 -0.45040894 -1.128479 -0.43643188zm20.48056 11.429825c0 0 0 0 0 0l0 0c0 0 0 0 0 0zm26.437347 -6.0013275c0.34173584 -0.013534546 0.65771484 0.047927856 0.9479675 0.18440247c0.35995483 0.16247559 0.6843567 0.40115356 0.97332764 0.7160034c0.28875732 0.310318 0.5140381 0.677536 0.6758728 1.1016693c0.16183472 0.42411804 0.25161743 0.86016846 0.26937866 1.308136c0.010772705 0.27148438 -0.19055176 0.62390137 -0.60388184 1.0572205c-0.4088745 0.43315125 -0.9519043 0.85350037 -1.6291199 1.2610321c-0.6728821 0.40283203 -1.3304749 0.73480225 -1.9727478 0.9959259c-0.64242554 0.2565918 -1.0790405 0.38946533 -1.3097839 0.3986206c-0.6148071 -0.07533264 -1.1270142 -0.13435364 -1.5365906 -0.17703247c-0.14941406 -0.005218506 -0.29345703 -0.0050964355 -0.43215942 3.9672852E-4c-0.30108643 0.011947632 -0.5769348 0.04916382 -0.82751465 0.111694336l0 0c-0.002532959 -0.059051514 -0.0049743652 -0.11817932 -0.0073242188 -0.1774292c-0.03265381 -0.8235321 0.069732666 -1.6138916 0.3070984 -2.3710785c0.23718262 -0.7617035 0.5812378 -1.4574127 1.032135 -2.0870972c0.45541382 -0.6298828 1.0105591 -1.145874 1.6653137 -1.5479736c0.6548157 -0.40211487 1.3926392 -0.6534271 2.2134705 -0.753952c0.07946777 -0.010635376 0.15765381 -0.017486572 0.2345581 -0.02053833zm-51.494873 -4.0113373c-0.3529358 0.01399231 -0.7178345 0.12590027 -1.0947571 0.33570862c-0.3771057 0.20529175 -0.5541382 0.5975342 -0.53118896 1.1767273c0.10211182 1.8903198 0.16369629 3.786789 0.18475342 5.689377c0.020843506 1.8980865 0.06964111 3.815445 0.14642334 5.7521057c0.07675171 1.9366455 0.18746948 3.8719482 0.3321228 5.805908c0.1444397 1.9294281 0.43099976 4.0707703 0.85964966 6.424011c0.67489624 0.10467529 1.2359314 0.19573975 1.683136 0.2731781c0.07095337 0.011581421 0.14025879 0.016021729 0.20791626 0.013336182c0.35855103 -0.014205933 0.6706543 -0.22865295 0.93637085 -0.6433258c0.3201599 -0.49760437 0.5314636 -1.1699219 0.6338196 -2.0169373c0.10223389 -0.851532 0.14855957 -2.0838013 0.13897705 -3.6968079c-0.0051879883 -1.6177216 -0.086517334 -3.7263947 -0.24395752 -6.32605c-0.15759277 -2.604187 -0.39471436 -5.8419647 -0.7113342 -9.713333c-0.008972168 -0.22624207 -0.06286621 -0.5005493 -0.16177368 -0.822937c-0.09890747 -0.3223877 -0.24310303 -0.64523315 -0.43267822 -0.96855164c-0.18502808 -0.3235016 -0.43933105 -0.6215973 -0.7628479 -0.8942871c-0.31915283 -0.2774048 -0.7140198 -0.4067688 -1.1846313 -0.38812256zm51.904846 0.22665405c-1.6968384 0.06726074 -3.168274 0.44735718 -4.4143066 1.1402893c-1.2414856 0.692749 -2.2777405 1.5903778 -3.1087036 2.692871c-0.83096313 1.102478 -1.4452515 2.355011 -1.842865 3.757553c-0.39761353 1.4025574 -0.5666199 2.8549652 -0.5070801 4.3572235c0.071746826 1.8099518 0.4668274 3.4303284 1.1852112 4.8611603c0.7229004 1.4306488 1.6768494 2.630066 2.8618164 3.5982666c1.1848145 0.9636688 2.5303345 1.6943665 4.0365295 2.192093c1.506073 0.49320984 3.0984497 0.7065277 4.7771606 0.63998413c0.6923218 -0.027435303 1.4230957 -0.11305237 2.1923828 -0.2568512c0.7736206 -0.14849854 1.553772 -0.3607025 2.340454 -0.63661194c0.79104614 -0.28060913 1.5514221 -0.6483917 2.281189 -1.1033173c0.67318726 -0.419693 1.5328064 -1.3905945 2.578888 -2.9127045l0 0c0.37075806 0.6092377 0.7494812 1.0937195 1.1361389 1.4534302c0.67251587 0.6168823 1.4127808 1.1132507 2.2207947 1.48909c0.8123169 0.3711548 1.670227 0.6339874 2.5737 0.78852844c0.9032898 0.15000916 1.7842407 0.2510376 2.6428528 0.30311584c0.85842896 0.047546387 1.6951294 0.061965942 2.5101624 0.043258667c0.81500244 -0.018722534 1.5935669 -0.042785645 2.3356323 -0.07218933c0.74209595 -0.029418945 1.5411072 -0.16532898 2.3971252 -0.4077301c0.86053467 -0.24258423 1.657196 -0.6095276 2.3900452 -1.1008453c0.7373657 -0.4914856 1.3516846 -1.1140594 1.8429871 -1.8677216c0.4956665 -0.7583618 0.72314453 -1.651123 0.68240356 -2.6782684c-0.051116943 -1.2895966 -0.36901855 -2.335205 -0.9536743 -3.136856c-0.5848694 -0.8061676 -1.3321228 -1.4223633 -2.2418518 -1.8485565c-0.90966797 -0.4262085 -1.8862915 -0.7115326 -2.9298706 -0.8559723c-1.0392151 -0.14915466 -2.08786 -0.25035095 -3.1459045 -0.3035736c-1.0580444 -0.053237915 -2.0687866 -0.11286926 -3.032196 -0.17892456c-0.963562 -0.0705719 -1.7844238 -0.19891357 -2.4625244 -0.38504028c-0.6783142 -0.19064331 -1.1934204 -0.43762207 -1.5453186 -0.74090576c-0.3474121 -0.3034668 -0.532959 -0.7538452 -0.5566101 -1.3511353c-0.030517578 -0.19819641 0.06765747 -0.40829468 0.29449463 -0.63027954c0.23138428 -0.22218323 0.617157 -0.4368744 1.1573181 -0.644104c0.5444946 -0.21192932 1.1640015 -0.3611145 1.8585205 -0.44755554c0.2574768 -0.033584595 0.50772095 -0.05519104 0.75076294 -0.064834595c0.4166565 -0.01651001 0.8121033 0.002166748 1.1863098 0.056030273c0.5968628 0.080566406 1.0804443 0.21775818 1.4506836 0.4115448c0.37023926 0.19380188 0.5607605 0.31314087 0.57162476 0.35803223c-0.24468994 0.45837402 -0.36810303 0.94592285 -0.37026978 1.4626465c0.002319336 0.5165558 0.1510315 0.9525299 0.44610596 1.3079224c0.29507446 0.3554077 0.6852112 0.53707886 1.1704712 0.5450287c0.03515625 2.593994E-4 0.06997681 -3.0517578E-4 0.104522705 -0.0016784668c0.44207764 -0.01751709 0.8340759 -0.16757202 1.1759949 -0.45014954c0.3685913 -0.30467224 0.6381531 -0.70736694 0.8086548 -1.2081146c0.17501831 -0.5009308 0.21548462 -1.0803528 0.12142944 -1.7382965c-0.08102417 -1.1297913 -0.50756836 -2.0578003 -1.279602 -2.7840424c-0.7677002 -0.7309418 -1.6692505 -1.2367859 -2.7045898 -1.5175018c-0.98010254 -0.26576233 -2.0231628 -0.37672424 -3.1291199 -0.33288574c-0.062316895 0.0024719238 -0.124816895 0.005432129 -0.18753052 0.008880615c-1.1757507 0.06474304 -2.2862244 0.29003906 -3.331421 0.6759033c-1.0453796 0.3813324 -1.9616699 0.93203735 -2.7488708 1.6520996c-0.78723145 0.72006226 -1.2669983 1.6500244 -1.4393616 2.789856c0.08746338 1.4059753 0.42263794 2.543808 1.0054626 3.4135132c0.5737915 0.87005615 1.3025818 1.5345612 2.1864014 1.993515c0.88378906 0.45895386 1.8413086 0.7767639 2.8725586 0.9534149c1.0310364 0.1721344 2.0578613 0.29458618 3.0804443 0.36735535c1.0269165 0.0680542 2.0015564 0.13139343 2.9238586 0.19000244c0.92666626 0.0539093 1.7246399 0.17637634 2.3938599 0.3673706c0.673584 0.18630981 1.1703491 0.42721558 1.4902039 0.722702c0.32443237 0.2953186 0.48843384 0.7170868 0.4920349 1.2653198c0.021362305 0.53845215 -0.13690186 0.94807434 -0.47473145 1.2288513c-0.3378296 0.28079224 -0.82315063 0.49943542 -1.4559631 0.6559448c-0.5717163 0.13728333 -1.2066345 0.21975708 -1.9047241 0.24742126c-0.074798584 0.0029754639 -0.15029907 0.0053100586 -0.2265625 0.007003784c-0.7833252 0.017456055 -1.4623108 0.037582397 -2.0369873 0.06036377c-0.7149353 0.028335571 -1.2832642 0.039535522 -1.704956 0.033584595c-0.4173584 -0.010650635 -0.77941895 -0.0552063 -1.0861816 -0.13368225c-0.3069458 -0.08300781 -0.66763306 -0.2069397 -1.0820312 -0.37179565c-0.4145813 -0.16937256 -0.9807434 -0.38938904 -1.6984558 -0.66004944c-0.18423462 -0.074279785 -0.3602295 -0.169281 -0.5279541 -0.2849884c-0.2097168 -0.14576721 -0.42919922 -0.30929565 -0.65844727 -0.49053955c-0.22946167 -0.18579102 -0.5171509 -0.3556671 -0.8631592 -0.5096283c-0.3461914 -0.15849304 -0.70932007 -0.23020935 -1.0894165 -0.21514893c-0.2850647 0.011306763 -0.559845 0.05392456 -0.8242798 0.1278534c-0.26461792 0.06939697 -0.723999 0.37086487 -1.3781433 0.90437317c0.19616699 0.43191528 0.39468384 0.8266144 0.59555054 1.1841125l0 0l-8.59491 0.92085266c-1.5912781 -0.013961792 -2.9266052 -0.14457703 -4.005951 -0.3918457c-1.0795288 -0.25178528 -1.9555969 -0.5728302 -2.6282043 -0.96310425c-0.6680908 -0.39045715 -1.1801453 -0.84602356 -1.5361328 -1.366684c-0.35601807 -0.5206604 -0.6251221 -1.0787659 -0.80737305 -1.6742859c-0.02255249 -0.07611084 -0.0440979 -0.15272522 -0.06463623 -0.2298584l0 0c0.061065674 0.027694702 0.12365723 0.052841187 0.1876831 0.075424194c0.40447998 0.14257812 0.80352783 0.20606995 1.1972046 0.19047546l1.085968 -0.043060303c0.95022583 -0.03765869 1.9599609 -0.23176575 3.0292053 -0.5823364c1.0692444 -0.35055542 2.067505 -0.83425903 2.9947815 -1.4511108c0.9317932 -0.6170349 1.7077332 -1.3933105 2.3277893 -2.3288116c0.62457275 -0.9356842 0.9137268 -1.9872437 0.86743164 -3.154663c-0.034973145 -0.88235474 -0.15826416 -1.7068176 -0.3699646 -2.473404c-0.25106812 -0.84658813 -0.63604736 -1.5836334 -1.1549072 -2.2111511c-0.51452637 -0.63220215 -1.1651001 -1.1525269 -1.9517212 -1.5609436c-0.7866211 -0.40841675 -1.7050781 -0.65527344 -2.7553406 -0.7405243zm-45.33722 4.937805c-1.257904 0.049865723 -1.76297 0.79953 -1.5151672 2.2490234c0.0028686523 0.072387695 0.010131836 0.25564575 0.02178955 0.5497589c0.011474609 0.28959656 0.016906738 0.5975647 0.016235352 0.92388916c-6.713867E-4 0.32632446 0.0050964355 0.64334106 0.017303467 0.95103455c0.012023926 0.30316162 0.02017212 0.50904846 0.024475098 0.61764526c0.012207031 0.30769348 0.048461914 0.8795471 0.108795166 1.7155762c0.060333252 0.83602905 0.14541626 1.7821045 0.25527954 2.8382416c0.11437988 1.055954 0.26239014 2.160431 0.44403076 3.3134155c0.18621826 1.1528015 0.39596558 2.214035 0.62927246 3.1837006c0.23782349 0.9694824 0.5448303 1.8546448 0.9210205 2.6555023c0.3761902 0.8008423 0.93304443 1.1866455 1.6705933 1.1574097c0.787323 -0.031204224 1.348053 -0.34802246 1.6822205 -0.9504242c0.33413696 -0.60240173 0.490448 -1.1750946 0.4689331 -1.7180786c-0.05795288 -1.4615326 -0.230896 -2.8527985 -0.5189514 -4.1737976c-0.288208 -1.3255005 -0.58673096 -2.6256866 -0.89559937 -3.900528c-0.3088379 -1.2748413 -0.5882263 -2.548584 -0.83807373 -3.8212433c-0.24533081 -1.2728271 -0.35531616 -2.675644 -0.32995605 -4.2084656c-0.33773804 -0.51686096 -0.66937256 -0.87986755 -0.99490356 -1.089035c-0.321167 -0.21386719 -0.7102661 -0.31173706 -1.1672974 -0.29362488zm26.462128 -0.23318481c-0.7104187 0.028167725 -1.410553 0.200943 -2.1004333 0.5183258c-0.68984985 0.31739807 -1.3435364 0.6900177 -1.9610901 1.1178436c-0.6174927 0.42781067 -1.1998291 0.88597107 -1.7469788 1.3744507c-0.54278564 0.4837799 -1.0170593 0.924057 -1.4227905 1.3208313c-0.32687378 0.31925964 -0.57385254 0.5692444 -0.7409363 0.74993896l0 0c-0.25769043 -0.32484436 -0.56295776 -0.6730194 -0.91586304 -1.0445557c-0.5118408 -0.5643463 -1.0734558 -1.0134125 -1.6849365 -1.3471985c-0.6069031 -0.33396912 -1.2714233 -0.57728577 -1.9935303 -0.7299347c-0.72229004 -0.15718079 -1.5133057 -0.21873474 -2.3730164 -0.1846466c-0.511322 0.020263672 -0.9676819 0.054214478 -1.3691711 0.10185242c-0.39694214 0.047454834 -0.78656006 0.16487122 -1.1688843 0.35224915c-0.30743408 0.14857483 -0.6147156 0.33911133 -0.9218445 0.57164l0 0c0.0011901855 -0.07757568 -9.1552734E-5 -0.16299438 -0.0037841797 -0.25624084l0 0c-0.3373108 0.39007568 -0.48223877 0.5841675 -0.4347229 0.58229065c0.024536133 -9.765625E-4 0.100250244 -0.054107666 0.22717285 -0.15937805c0.07043457 -0.057769775 0.14086914 -0.11332703 0.21133423 -0.16667175l0 0c-0.005706787 0.3791809 -0.069488525 0.5711975 -0.19134521 0.5760193c-0.07342529 0.0029144287 -0.16790771 -0.062072754 -0.28341675 -0.19496155c-0.39779663 -0.5462036 -0.98132324 -0.8040619 -1.7505493 -0.7735596l-0.73983765 0.029312134c-0.11682129 0.253891 -0.22793579 0.4237213 -0.33328247 0.5094757c-0.1053772 0.085754395 -0.22671509 0.2831726 -0.36401367 0.59225464c0.007537842 0.19004822 0.013458252 0.33937073 0.01776123 0.44796753c0.0043029785 0.1085968 0.0026245117 0.23782349 -0.0050354004 0.38768005c-0.007659912 0.14985657 -0.008514404 0.29945374 -0.0025939941 0.44877625c0.00592041 0.14932251 0.0099487305 0.25112915 0.012084961 0.30541992c0.039642334 1.0 0.11090088 1.9398346 0.21374512 2.8194885c0.10266113 0.8751373 0.20480347 1.7367096 0.30639648 2.5846863c0.10159302 0.84799194 0.19122314 1.7372437 0.26889038 2.6677551c0.07766724 0.9305115 0.11260986 1.9828186 0.104766846 3.1569061c0.08459473 0.30482483 0.17858887 0.61834717 0.28198242 0.94055176c0.107940674 0.32202148 0.2609558 0.63772583 0.4590454 0.94711304c0.19787598 0.30485535 0.46447754 0.57073975 0.79977417 0.7976532c0.33984375 0.22673035 0.75408936 0.33039856 1.2427673 0.31103516c0.9095154 -0.03605652 1.4254456 -0.3397522 1.547821 -0.91111755c0.12689209 -0.57151794 0.18136597 -1.0835266 0.16345215 -1.536026c-0.04360962 -1.0995331 -0.1607666 -2.1689758 -0.35153198 -3.208313c-0.19073486 -1.0393219 -0.30682373 -2.081604 -0.3482666 -3.1268616c-0.023498535 -0.5927582 0.041870117 -1.173172 0.19610596 -1.7412567c0.15405273 -0.5726013 0.37194824 -1.0774994 0.65374756 -1.514679c0.28631592 -0.4373474 0.6485901 -0.78707886 1.086853 -1.0491791c0.43829346 -0.26210022 0.9492798 -0.40472412 1.5329895 -0.42785645c0.7194519 -0.028518677 1.3325806 0.17604065 1.839386 0.613678c0.5066223 0.43312073 0.96829224 1.0470276 1.3850403 1.8417358c0.42123413 0.7945404 0.78930664 1.6772766 1.1042786 2.6482391c0.3194275 0.9707794 0.6307678 1.9078827 0.9339905 2.811325c0.30319214 0.9034424 0.6733093 1.7226562 1.110321 2.4576569c0.4413452 0.73028564 1.0783386 1.0789185 1.9108887 1.0459137c0.8642578 -0.03425598 1.3893433 -0.33605957 1.5752563 -0.9053955c0.19021606 -0.57403564 0.27682495 -1.0759888 0.25979614 -1.5058441c-0.020996094 -0.52941895 -0.11743164 -1.019577 -0.2894287 -1.4704895c-0.17214966 -0.45544434 -0.34039307 -0.8702545 -0.50479126 -1.2444153c-0.16436768 -0.37417603 -0.3121338 -0.7286072 -0.4432068 -1.063324c-0.13128662 -0.33921814 -0.203125 -0.6649475 -0.21548462 -0.9771576c-0.025665283 -0.6470642 0.13961792 -1.2790222 0.49588013 -1.8959045c0.36203003 -0.6986847 0.84259033 -1.3227539 1.4417114 -1.8722076c0.6036377 -0.54963684 1.2520142 -0.9990845 1.9451904 -1.3483276c0.69747925 -0.35395813 1.3493958 -0.5429535 1.955719 -0.5669861c0.5610962 -0.022232056 1.0895996 0.21966553 1.5855103 0.72572327c0.50027466 0.5013428 0.9477234 1.1566162 1.3423462 1.9657898c0.3946228 0.8091736 0.6998291 1.6490936 0.9156494 2.5197449c0.2157898 0.87065125 0.3587036 1.5606537 0.42874146 2.069992c0.0025024414 0.06335449 -0.0023498535 0.28334045 -0.01461792 0.6599884c-0.0077209473 0.37644958 -0.03024292 0.7807007 -0.06750488 1.2127075c-0.03744507 0.42749023 -0.07086182 0.8412323 -0.1003418 1.2412109c-0.024932861 0.3998108 -0.03616333 0.6313782 -0.03366089 0.69473267l-0.031036377 0.24595642c0.006286621 0.15837097 0.01184082 0.29864502 0.016693115 0.42082214c0.004852295 0.122161865 0.0031738281 0.25138855 -0.0050354004 0.38768005c-0.008178711 0.13627625 -0.010131836 0.25872803 -0.0058288574 0.36732483c0.007537842 0.19004822 0.015686035 0.3959198 0.024475098 0.61764526c0.008605957 0.2171936 0.067718506 0.45051575 0.17730713 0.69996643c0.109436035 0.24491882 0.29049683 0.46887207 0.5432739 0.67185974c0.2527771 0.20297241 0.6099243 0.2953186 1.0714722 0.27702332c0.8416443 -0.033355713 1.4335938 -0.41938782 1.7759705 -1.158081c0.3421631 -0.74320984 0.5638733 -1.4952393 0.6651306 -2.2561035c0.10562134 -0.7655487 0.15158081 -1.4924927 0.13787842 -2.1808167c-0.009307861 -0.6930237 -0.019470215 -1.1775513 -0.030426025 -1.4535675c-0.029571533 -0.7465973 -0.12756348 -1.5607452 -0.2939453 -2.4424133c-0.16186523 -0.8818512 -0.40542603 -1.767273 -0.7307129 -2.65625c-0.32077026 -0.8891449 -0.715271 -1.7527161 -1.1835632 -2.5906982c-0.46829224 -0.8379822 -1.0308228 -1.5951843 -1.6875916 -2.2716064c-0.6569214 -0.680954 -1.4081116 -1.224472 -2.2535706 -1.6305695c-0.845459 -0.40608215 -1.802124 -0.5879669 -2.869995 -0.54563904zm-47.533554 -5.5392c-0.8642578 0.03425598 -1.8064728 0.1599884 -2.8266144 0.37716675c-1.02034 0.21266174 -1.9833374 0.55674744 -2.8890228 1.0322571c-0.90133667 0.47079468 -1.6690521 1.1107788 -2.3031769 1.9199524c-0.63430786 0.8046417 -0.9268036 1.8291473 -0.8774719 3.0734863c0.022949219 0.57917786 0.13867188 1.1546936 0.3471527 1.7265167c0.21299744 0.5716553 0.4857483 1.1069489 0.81822205 1.6058807c0.332489 0.49893188 0.73783875 0.94966125 1.2160645 1.3521881c0.4780426 0.397995 0.9691467 0.7252197 1.4732819 0.98168945l12.363586 6.124359c0.35107422 0.1673584 0.6064911 0.3226471 0.7662506 0.46588135c0.16409302 0.13851929 0.27600098 0.27456665 0.33569336 0.40815735c0.06402588 0.12889099 0.10992432 0.31515503 0.13769531 0.55877686c0.03213501 0.23892212 0.055389404 0.53938293 0.069732666 0.9013672c0.039611816 0.54226685 -0.13409424 0.9615631 -0.5211792 1.257904c-0.38253784 0.29614258 -0.9349365 0.5378418 -1.6571503 0.7250824c-0.722229 0.18725586 -1.5129395 0.30470276 -2.3721313 0.35235596c-0.85466003 0.047470093 -1.5439148 0.095184326 -2.0677185 0.1431427c-1.5776978 -0.01449585 -3.0648956 -0.08924866 -4.461563 -0.2242279c-1.3237305 -0.12426758 -2.4861603 -0.4090271 -3.4872437 -0.8542633c-1.0010834 -0.44525146 -1.7882538 -1.0961151 -2.3615265 -1.952591c-0.57325745 -0.85647583 -0.9031067 -2.375229 -0.989563 -4.5562134c-1.0588226 0.04197693 -1.779602 0.20877075 -2.162323 0.5003967c-0.3783722 0.286911 -0.68255615 0.61621094 -0.9125519 0.9878845c-0.22547913 0.37150574 -0.3982849 0.7567749 -0.51841736 1.1558075c-0.12031555 0.39453125 -0.1716919 0.8135071 -0.15411377 1.2569427c0.3774414 1.2902527 1.0327911 2.388214 1.9660187 3.293869c0.9377594 0.90548706 2.02417 1.673645 3.2592163 2.3044891c1.2348633 0.6263275 2.5819092 1.1099701 4.0411377 1.450943c1.4590302 0.33644104 2.922104 0.5458374 4.389206 0.6281738c0.7720947 0.04547119 1.5327148 0.053359985 2.2818756 0.023666382c0.6789093 -0.026916504 1.3484344 -0.08470154 2.0085144 -0.17333984c1.3886414 -0.1819458 2.665039 -0.5089874 3.8291626 -0.98114014c1.163971 -0.47668457 2.1391907 -1.1407623 2.9257507 -1.992218c0.79086304 -0.8561859 1.2422485 -1.8733826 1.354187 -3.0516052c0.11645508 -1.1783905 -0.10336304 -2.2075043 -0.6594238 -3.0873413c-0.5562439 -0.8843384 -1.2810059 -1.6759033 -2.1743164 -2.3746796c-0.89328 -0.69877625 -1.9057922 -1.318039 -3.0375519 -1.8578033c-1.1273956 -0.5444641 -2.2695465 -1.0611572 -3.4264526 -1.5500793c-1.1523895 -0.48908997 -2.2813416 -0.958725 -3.386856 -1.4088898c-1.101181 -0.4548645 -2.0761108 -0.92607117 -2.9247894 -1.4136047c-0.8488617 -0.49206543 -1.4934692 -0.97636414 -1.9338379 -1.4528961c-0.4360199 -0.4812317 -0.66433716 -0.9820404 -0.68496704 -1.5023956c-0.018661499 -0.47058105 0.16293335 -0.8630066 0.544754 -1.1772461c0.38616943 -0.31895447 0.9218292 -0.58265686 1.6069641 -0.7910919c0.6851349 -0.20843506 1.4135895 -0.35287476 2.1853638 -0.4333191c0.77612305 -0.08514404 1.4266205 -0.13812256 1.9515228 -0.15893555c0.11947632 -0.016067505 0.2375946 -0.026412964 0.35438538 -0.031036377c0.35040283 -0.013900757 0.68881226 0.02368164 1.0152435 0.112701416c0.4352417 0.11871338 0.87280273 0.2962494 1.3127289 0.5325928c0.43972778 0.23182678 0.8845215 0.47705078 1.3343811 0.735672c0.44985962 0.25862122 0.90579224 0.49887085 1.3677673 0.7207489c0.46200562 0.22189331 0.96447754 0.37872314 1.5074158 0.4704895c0.102142334 0.017089844 0.20947266 0.023406982 0.32192993 0.018951416c0.490448 -0.019439697 1.0792236 -0.24369812 1.7663269 -0.67276c-0.044647217 -1.1266937 -0.29315186 -1.964325 -0.74542236 -2.5128937c-0.4477539 -0.54875183 -0.975647 -1.0036774 -1.5836487 -1.3648071c-0.6036682 -0.3658142 -1.2698822 -0.65211487 -1.9986572 -0.8588867c-0.7287903 -0.20677185 -1.4488983 -0.36631775 -2.1603394 -0.47860718c-0.71144104 -0.11228943 -1.3830719 -0.19216919 -2.0149078 -0.23962402c-0.6273041 -0.0476532 -1.1468201 -0.063308716 -1.5585938 -0.04699707z" fill-rule="evenodd"></path><path fill="#f38219" d="m364.47076 146.89243c-0.05596924 0.0022125244 -0.11135864 0.00843811 -0.1661377 0.018676758c-0.39364624 0.015609741 -0.7922363 0.13563538 -1.1957397 0.36010742c-0.40371704 0.21994019 -0.5920105 0.6715393 -0.5649414 1.3547974c0.02029419 0.51130676 0.08981323 0.9504242 0.20858765 1.317337c0.118774414 0.36691284 0.3206482 0.6580353 0.60565186 0.8733368c0.28500366 0.21530151 0.61224365 0.35414124 0.9818115 0.41653442c0.37393188 0.05769348 0.7939148 0.077301025 1.2599792 0.05882263l0.25790405 -0.010223389c1.013092 -0.16705322 1.4658508 -0.6925812 1.3582764 -1.5765839c-0.056854248 -0.4056244 -0.22494507 -0.8159027 -0.50424194 -1.2308502c-0.2793274 -0.41493225 -0.6502075 -0.7967682 -1.1127014 -1.1455383c-0.39935303 -0.30493164 -0.7755127 -0.45040894 -1.1284485 -0.43641663zm1.9906616 6.5816193c-1.257904 0.049865723 -1.76297 0.79953 -1.5151672 2.2490082c0.0028686523 0.072402954 0.010131836 0.255661 0.02178955 0.54977417c0.011474609 0.28959656 0.01687622 0.59754944 0.016235352 0.92388916c-6.713867E-4 0.32632446 0.0050964355 0.64334106 0.017303467 0.9510193c0.012023926 0.30317688 0.02017212 0.50904846 0.024475098 0.61764526c0.012207031 0.30769348 0.048461914 0.8795624 0.108795166 1.7155914c0.060333252 0.8360138 0.14541626 1.7821045 0.25524902 2.8382263c0.11437988 1.055954 0.26239014 2.160431 0.44406128 3.3134155c0.18618774 1.1528168 0.39596558 2.2140503 0.62924194 3.1837158c0.237854 0.9694824 0.54486084 1.8546448 0.9210205 2.655487c0.3761902 0.8008423 0.93307495 1.1866608 1.6706238 1.1574249c0.787323 -0.031219482 1.348053 -0.34802246 1.68219 -0.9504242c0.33416748 -0.60240173 0.49047852 -1.1751099 0.46896362 -1.7180939c-0.05795288 -1.4615326 -0.23092651 -2.8527985 -0.5189514 -4.1737823c-0.288208 -1.3255157 -0.58673096 -2.6256866 -0.89559937 -3.900528c-0.3088684 -1.2748566 -0.5882263 -2.5485992 -0.83807373 -3.8212433c-0.24533081 -1.2728271 -0.35531616 -2.6756592 -0.32995605 -4.2084656c-0.33773804 -0.51686096 -0.66937256 -0.87986755 -0.99490356 -1.089035c-0.321167 -0.21386719 -0.71029663 -0.31175232 -1.1672974 -0.29362488zm14.2126465 -0.563385c-0.82351685 0.03263855 -1.622406 0.22972107 -2.396637 0.59124756c-0.77441406 0.3570099 -1.4802246 0.7294159 -2.1174622 1.1172333c-0.63742065 0.38330078 -1.1907349 0.7156677 -1.6599731 0.99713135c-0.27371216 0.16566467 -0.50686646 0.28411865 -0.69940186 0.35539246l0 0c-0.06137085 -0.11520386 -0.16668701 -0.2542572 -0.3159485 -0.41711426c-0.20410156 -0.2321167 -0.5233154 -0.33955383 -0.95770264 -0.32234192c-0.32580566 0.012924194 -0.69140625 0.10671997 -1.0969238 0.28141785c-0.40548706 0.17469788 -0.5954895 0.5832977 -0.5700073 1.2258453c0.023651123 0.5972748 0.056396484 1.4230652 0.09820557 2.4773712c0.041778564 1.0542908 0.12045288 2.1819 0.23605347 3.3828278c0.11993408 1.196228 0.29534912 2.4197083 0.5261841 3.670456c0.23086548 1.2507477 0.53460693 2.3966217 0.91122437 3.4376526c0.38098145 1.0363159 0.90582275 1.9287109 1.5744934 2.6771698c0.66867065 0.7484741 1.8084717 1.0907745 3.4193115 1.0269165c-0.059539795 -1.5022583 -0.19314575 -2.7002106 -0.40078735 -3.5938416c-0.2033081 -0.8983307 -0.42370605 -1.7710724 -0.66122437 -2.6182098c-0.23751831 -0.8471222 -0.45169067 -1.677063 -0.6425171 -2.4897766c-0.18652344 -0.8174286 -0.29525757 -1.6175537 -0.32629395 -2.40036c-0.031036377 -0.7828064 0.07467651 -1.4894562 0.31704712 -2.119934c0.24221802 -0.635025 0.58096313 -1.1786957 1.0162354 -1.631012c0.43978882 -0.45251465 0.969574 -0.8066101 1.5894165 -1.0623169c0.6196289 -0.2602234 1.2982178 -0.404953 2.0357666 -0.43418884c0.6515808 -0.02583313 1.3213196 0.29205322 2.0092163 0.9536438c0.6877136 0.657074 1.3106995 1.6248932 1.868988 2.9034424c0.56259155 1.2738495 0.996521 2.7884521 1.3017578 4.5438385c0.30508423 1.7508545 0.3784485 3.6581726 0.22003174 5.721985c0.018829346 0.47511292 0.16488647 0.78656006 0.43811035 0.93434143c0.2775879 0.14308167 0.51483154 0.2401886 0.7117615 0.29129028c0.19689941 0.051116943 0.38394165 0.082229614 0.5611267 0.093322754c0.18154907 0.0064086914 0.3130188 0.0079956055 0.3944702 0.004760742c0.6561279 -0.026000977 1.1361084 -0.32148743 1.440033 -0.88642883c0.30844116 -0.5651398 0.50375366 -1.1257782 0.5859375 -1.6819458c0.08670044 -0.55633545 0.14019775 -1.0932312 0.16046143 -1.6106873c0.024658203 -0.5221405 0.03164673 -0.9167023 0.021057129 -1.1836853c-0.029571533 -0.7465973 -0.13668823 -1.6192932 -0.32128906 -2.6180725c-0.18011475 -0.9989624 -0.44714355 -2.0194092 -0.80114746 -3.061325c-0.3496704 -1.0466309 -0.77334595 -2.074463 -1.2710876 -3.083496c-0.4932251 -1.0092163 -1.0893555 -1.9282379 -1.7883911 -2.7570648c-0.69924927 -0.833374 -1.5053406 -1.5038757 -2.4182434 -2.0115204c-0.90859985 -0.5123596 -1.9058533 -0.7470093 -2.9918518 -0.70396423z" fill-rule="evenodd"></path><path fill="#f38219" d="m436.09805 151.13907c0 0 0 0 0 0l0 0c0 0 0 0 0 0zm82.79434 1.8738251c0 0 0 0 0 0l0 0c0 0 0 0 0 0zm79.90326 5.4185486c0.011291504 0.2850647 -0.070739746 0.44467163 -0.24615479 0.4788208c-0.038146973 0.0065612793 -0.07171631 0.012390137 -0.10064697 0.017456055l0 0c0.11694336 -0.16230774 0.23254395 -0.32772827 0.34680176 -0.49627686zm-46.924255 -2.8577576c0.30114746 0.051513672 0.72875977 0.14785767 1.2827148 0.2890625c0.553772 0.13665771 1.15094 0.39624023 1.7915039 0.7787323c0.6404419 0.3779602 1.298584 0.9183655 1.9745483 1.6212311c0.5629883 0.57780457 1.1376343 1.4096832 1.723877 2.4956665l0 0c-0.48547363 0.038497925 -0.9682007 0.09577942 -1.4482422 0.1717987c-0.72528076 0.1103363 -1.4454956 0.23405457 -2.1606445 0.37117004c-0.7151489 0.13711548 -1.4263306 0.2604828 -2.133484 0.37008667c-0.7073364 0.10508728 -1.4252319 0.1720581 -2.1538086 0.200943c-0.42077637 0.016677856 -0.986084 -0.010772705 -1.6959229 -0.082336426c-0.710022 -0.07608032 -1.3981323 -0.22782898 -2.06427 -0.45521545c-0.6661377 -0.22738647 -1.1958008 -0.498703 -1.5889893 -0.8139496c-0.38867188 -0.3154297 -0.5906372 -0.66545105 -0.60583496 -1.0500641c-0.017028809 -0.4298706 0.07208252 -0.81181335 0.26727295 -1.1458588c0.19519043 -0.3340454 0.48651123 -0.6446991 0.8739624 -0.9319763c0.38726807 -0.29180908 0.8550415 -0.55281067 1.4033813 -0.78302c0.5526123 -0.23490906 1.1047363 -0.42674255 1.65625 -0.5755005c0.5559082 -0.15345764 1.0952759 -0.26548767 1.6182251 -0.33605957c0.5228882 -0.07058716 0.942749 -0.1121521 1.2594604 -0.12471008zm37.983337 -6.4621124c0.0289917 -0.001159668 0.058166504 -0.0020599365 0.08746338 -0.0027313232c0.80126953 -0.02268982 1.7651367 0.22688293 2.8916626 0.7487335c1.1307983 0.5171356 2.3214111 1.3400879 3.5715942 2.4688416c0.0012817383 0.032577515 0.0029296875 0.07330322 0.0048828125 0.122177124c0.009643555 0.24433899 0.016113281 0.40724182 0.019348145 0.48869324c0.028137207 0.71040344 -0.18322754 1.4937439 -0.6342163 2.3500519c-0.44665527 0.85157776 -1.046814 1.6594086 -1.8005981 2.4234772c-0.74938965 0.75935364 -1.5562744 1.3827667 -2.4207153 1.870224c-0.8601074 0.48275757 -1.654419 0.7385864 -2.3828735 0.76745605c-0.56103516 0.022247314 -0.9986572 -0.041992188 -1.3128662 -0.19268799c-0.31414795 -0.1506958 -0.600647 -0.40446472 -0.8594971 -0.7612915c-0.25891113 -0.35682678 -0.50598145 -0.8727417 -0.7411499 -1.54776c-0.230896 -0.67970276 -0.49102783 -1.469284 -0.7805176 -2.368744c-0.047729492 -0.6325836 0.010131836 -1.3441467 0.17370605 -2.1346588c0.16809082 -0.7906952 0.4390869 -1.4993591 0.8130493 -2.126007c0.3739624 -0.62664795 0.8434448 -1.1301727 1.4085083 -1.5106049c0.5443115 -0.36650085 1.1984253 -0.56489563 1.9622192 -0.59516907zm-115.168915 5.40213c1.4182739 0.45137024 2.5397034 0.95980835 3.3642883 1.5253448c0.82907104 0.56536865 1.3907776 1.1299896 1.6850586 1.6938934c0.2987976 0.5637207 0.42108154 1.1344299 0.36697388 1.712143c-0.054138184 0.577713 -0.2461853 1.163147 -0.5761719 1.7563171c-0.32998657 0.5931854 -0.7655029 1.1542816 -1.306488 1.6833038c-0.5409546 0.5290375 -1.1097412 0.98664856 -1.7062378 1.3728638c-0.5920105 0.38601685 -1.1718445 0.6786499 -1.7394714 0.87789917c-0.45178223 0.1585846 -0.84332275 0.2444458 -1.1746216 0.25758362c-0.08493042 0.0033721924 -0.16592407 0.001953125 -0.24291992 -0.0042419434c-0.7782593 0.030853271 -1.5011902 -0.08552551 -2.1687927 -0.34910583c-0.66326904 -0.2682953 -1.2443848 -0.63726807 -1.7433777 -1.1069489c-0.49450684 -0.46984863 -0.8907471 -1.0342407 -1.1887817 -1.693161c-0.29351807 -0.6591034 -0.4547119 -1.3529053 -0.48361206 -2.0814056c-0.034057617 -0.85972595 0.15298462 -1.6285095 0.56118774 -2.306366c0.41256714 -0.68255615 0.9581909 -1.266159 1.6369019 -1.7507935c0.67871094 -0.4846344 1.4545898 -0.86209106 2.3276062 -1.1323547c0.87286377 -0.27479553 1.6690063 -0.42645264 2.3884583 -0.4549713zm20.321259 -0.80552673c1.4182739 0.45137024 2.5397034 0.9598236 3.3642883 1.5253601c0.82907104 0.5653534 1.3907776 1.1299744 1.6850586 1.6938782c0.2987671 0.5637207 0.42108154 1.1344299 0.36697388 1.712143c-0.0541687 0.577713 -0.24621582 1.163147 -0.5762024 1.7563324c-0.32995605 0.59317017 -0.7654724 1.1542664 -1.3064575 1.6833038c-0.5409851 0.5290222 -1.1097412 0.9866333 -1.7062683 1.3728485c-0.59198 0.38601685 -1.171814 0.67866516 -1.7394714 0.8779144c-0.45178223 0.1585846 -0.84329224 0.24443054 -1.1745911 0.25756836c-0.08496094 0.0033721924 -0.16595459 0.001953125 -0.24295044 -0.0042419434c-0.7782593 0.030853271 -1.5011597 -0.08552551 -2.1687927 -0.34910583c-0.6632385 -0.26828003 -1.2443848 -0.63726807 -1.7433777 -1.1069489c-0.49447632 -0.46984863 -0.8907471 -1.0342407 -1.1887817 -1.693161c-0.29351807 -0.65908813 -0.4547119 -1.35289 -0.48358154 -2.0814056c-0.034088135 -0.85972595 0.15298462 -1.6285095 0.56118774 -2.306366c0.41253662 -0.68255615 0.9581299 -1.2661438 1.6369019 -1.7507935c0.6786804 -0.4846344 1.4545593 -0.8620758 2.3276062 -1.1323547c0.87283325 -0.27479553 1.6689758 -0.42645264 2.3884583 -0.4549713zm42.402344 -12.435226c-0.35290527 0.01399231 -0.7178345 0.12590027 -1.0947266 0.33570862c-0.3770752 0.20529175 -0.5541382 0.5975342 -0.53118896 1.1767273c0.10211182 1.8903198 0.16369629 3.786789 0.18475342 5.689377c0.020812988 1.8980865 0.06964111 3.815445 0.14642334 5.7521057c0.07672119 1.9366455 0.18743896 3.8719482 0.3320923 5.805908c0.14447021 1.9294281 0.43103027 4.0707703 0.8596802 6.424011c0.6748657 0.10467529 1.2359009 0.19573975 1.6831055 0.2731781c0.07092285 0.011581421 0.14025879 0.016021729 0.20794678 0.013336182c0.3585205 -0.014205933 0.67059326 -0.22865295 0.93634033 -0.6433258c0.32019043 -0.49760437 0.53149414 -1.1699219 0.6338501 -2.0169373c0.10223389 -0.851532 0.14855957 -2.0838013 0.13897705 -3.6968079c-0.0052490234 -1.6177216 -0.08654785 -3.7263947 -0.24395752 -6.32605c-0.15759277 -2.604187 -0.39471436 -5.8419647 -0.71136475 -9.713333c-0.008972168 -0.22624207 -0.06286621 -0.5005493 -0.16174316 -0.822937c-0.09887695 -0.3223877 -0.24310303 -0.64523315 -0.43267822 -0.96855164c-0.1850586 -0.3235016 -0.43933105 -0.6215973 -0.7628784 -0.8942871c-0.31915283 -0.2774048 -0.7140503 -0.4067688 -1.1846313 -0.38812256zm-79.535675 8.251251c-0.5882263 0.02331543 -1.1780396 0.12147522 -1.7693787 0.2944641c-0.586853 0.17282104 -1.1520691 0.37651062 -1.6956787 0.6110687c-0.5436096 0.23454285 -1.0664673 0.4773407 -1.5686646 0.7283783c-0.49783325 0.24633789 -0.80926514 0.3923645 -0.9343567 0.43811035c0.06262207 0.055526733 0.07067871 0.08421326 0.024230957 0.08605957c-0.04071045 0.0016174316 -0.123168945 -0.017318726 -0.247406 -0.05680847c-0.26638794 -0.089141846 -0.47576904 -0.16921997 -0.6281128 -0.24023438l-0.2850952 0.011306763c0.52490234 -0.020812988 0.78707886 -0.037994385 0.78652954 -0.051574707c-5.187988E-4 -0.0135650635 -0.3039856 -0.008346558 -0.91030884 0.015701294c-0.60632324 0.024032593 -0.9092102 0.04283142 -0.9086914 0.056411743c5.493164E-4 0.0135650635 0.27682495 0.009414673 0.8288574 -0.012466431l-0.4411621 0.017486572c-0.4171753 0.45161438 -0.66915894 0.8400116 -0.75598145 1.1652374c-0.087005615 0.3206787 -0.13345337 0.63523865 -0.13934326 0.94363403c-0.0015563965 0.30371094 0.015991211 0.5749359 0.052642822 0.8136749c0.036499023 0.23422241 0.058135986 0.43730164 0.064941406 0.6092529c0.10046387 1.0474396 0.26382446 2.1966248 0.49017334 3.4475403c0.23086548 1.2507477 0.52423096 2.535263 0.88012695 3.8535614c0.3604126 1.3181152 0.79071045 2.6266632 1.290863 3.9256592c0.5 1.2944489 1.1697388 2.641098 2.0092163 4.0399323c0.97283936 -0.03855896 1.6804199 -0.30908203 2.1227722 -0.8115387c0.4467163 -0.5071564 0.65963745 -1.0231781 0.63882446 -1.5480652c-0.09094238 -0.80763245 -0.25054932 -1.5762634 -0.47888184 -2.3059235c-0.22833252 -0.7296753 -0.47457886 -1.4540863 -0.738739 -2.1732788c-0.26437378 -0.72369385 -0.53723145 -1.4334717 -0.8186035 -2.129303c-0.28155518 -0.70036316 -0.51260376 -1.3845978 -0.69317627 -2.0527039c-0.17623901 -0.67282104 -0.2916565 -1.3548431 -0.34622192 -2.0460663c-0.054595947 -0.6912384 -0.01727295 -1.3498535 0.11199951 -1.9758606c0.27493286 -0.4958191 0.62997437 -0.8565979 1.0651855 -1.0823212c0.42834473 -0.2843628 0.90005493 -0.44581604 1.4151611 -0.48435974c0.07803345 -0.0065307617 0.15740967 -0.011398315 0.2381897 -0.014602661c0.45220947 -0.017913818 0.94729614 0.016296387 1.485199 0.102630615c0.63830566 0.09706116 1.2802734 0.22798157 1.9258118 0.3927307c0.64553833 0.16474915 1.2922363 0.3022766 1.9401855 0.41255188c0.32943726 0.05606079 0.70840454 0.0756073 1.1368713 0.058624268c0.4142151 -0.016418457 0.87472534 -0.066970825 1.3814697 -0.1516571c-0.040893555 -1.0316772 -0.12506104 -1.7262573 -0.25253296 -2.0837708c-0.12313843 -0.36221313 -0.28936768 -0.66833496 -0.49865723 -0.9183502c-0.20932007 -0.25003052 -0.42144775 -0.45689392 -0.6364441 -0.6205902c-0.2104187 -0.16386414 -0.4764099 -0.3572693 -0.7979431 -0.58018494c-0.5405884 -0.1462555 -0.9801941 -0.2602539 -1.3187866 -0.3420105c-0.33877563 -0.08627319 -0.66571045 -0.15942383 -0.98080444 -0.21943665c-0.315094 -0.060028076 -0.63391113 -0.09950256 -0.9564209 -0.11845398c-0.31799316 -0.019104004 -0.680603 -0.020599365 -1.0878601 -0.0044555664zm91.9147 -5.682846c-0.5475464 0.021697998 -1.0581055 0.11671448 -1.5318604 0.28504944c-0.47387695 0.16381836 -0.9109497 0.39866638 -1.3112793 0.70458984c-0.39593506 0.3012085 -0.70428467 0.6963806 -0.92510986 1.1855316c-0.2208252 0.489151 -0.31884766 1.045929 -0.29406738 1.6703644c0.011657715 0.29411316 0.11340332 0.5189514 0.30541992 0.67448425c0.068115234 0.052352905 0.12664795 0.097976685 0.17578125 0.1368866l0 0c0.026184082 0.35173035 0.34979248 0.5152893 0.97076416 0.49067688c0.38916016 -0.015426636 0.70544434 -0.095947266 0.9489136 -0.24156189c0.24804688 -0.14578247 0.45812988 -0.276474 0.63031006 -0.39207458c0.17199707 -0.12011719 0.32037354 -0.20758057 0.44506836 -0.26237488c0.12451172 -0.059310913 0.2659912 -0.09211731 0.42437744 -0.09838867c0.54296875 -0.021530151 1.1374512 0.11352539 1.7835083 0.40515137c0.65057373 0.29145813 1.2714233 0.6905823 1.8625488 1.197403c0.595459 0.5021057 1.079773 1.0584717 1.4529419 1.6690979c0.2532959 0.4144745 0.42596436 0.8237915 0.51812744 1.2279663l0 0c-0.96203613 -0.31941223 -2.1489868 -0.5344391 -3.560913 -0.6450958c-0.6581421 -0.051818848 -1.2855225 -0.06590271 -1.8822021 -0.042251587c-0.7223511 0.028640747 -1.3996582 0.11256409 -2.0319214 0.25178528c-1.1548462 0.24972534 -2.1590576 0.6407623 -3.0126343 1.173111c-0.8491821 0.5276489 -1.5529175 1.1243134 -2.111145 1.789978c-0.553772 0.6654968 -0.9595337 1.3477783 -1.2172852 2.0468597c-0.2532959 0.6989136 -0.3843994 1.336319 -0.39331055 1.9122314c0.064575195 1.628952 0.5132446 2.943573 1.3460083 3.943863c0.83709717 0.9955902 1.8457031 1.7441711 3.0257568 2.245758c1.1846313 0.50141907 2.4506226 0.8273926 3.7980347 0.97792053c1.3518066 0.14582825 2.618164 0.19532776 3.7991943 0.1485138c0.26696777 -0.0105896 0.6790161 -0.07676697 1.236145 -0.19856262c0.5569458 -0.12631226 1.1472168 -0.2698059 1.770813 -0.43048096c0.62335205 -0.16520691 1.2703247 -0.36532593 1.9407959 -0.6003876c0.6749878 -0.23521423 1.2936401 -0.46368408 1.855896 -0.685379c0.56658936 -0.22639465 1.0975952 -0.49217224 1.5930786 -0.79733276c0.50006104 -0.30532837 0.7401123 -0.70913696 0.7201538 -1.2113953c-0.008422852 -0.212677 -0.048950195 -0.49205017 -0.12158203 -0.83813477c-0.031799316 -0.1531372 -0.11755371 -0.2929077 -0.25726318 -0.41929626l0 0c0.093566895 -1.467392 0.039733887 -2.7904663 -0.16143799 -3.9691925c-0.1899414 -1.2478333 -0.5310669 -2.480606 -1.0234985 -3.6983337c-0.49243164 -1.2177124 -1.0895386 -2.3904877 -1.7913818 -3.5183258c-0.69750977 -1.1325378 -1.5074463 -2.1291962 -2.4298706 -2.9899597c-0.9178467 -0.8609619 -1.9295044 -1.5731659 -3.0349731 -2.1366272c-1.1011353 -0.56817627 -2.2717896 -0.888855 -3.5119019 -0.96206665zm45.49994 -11.4635315c-1.1514282 0.3356781 -1.7914429 0.88223267 -1.9199829 1.6396332c-0.12426758 0.75271606 -0.09466553 1.5559692 0.08868408 2.4097748c0.18341064 0.85380554 0.45117188 1.7767944 0.8031616 2.7689362c0.35656738 0.9919739 0.7036133 2.0296326 1.0411377 3.1129913c0.3373413 1.0788422 0.6184082 2.1667023 0.84313965 3.2636108c0.22460938 1.0923615 0.33551025 1.6612701 0.3328247 1.7066956c-0.04650879 -0.029876709 -0.46166992 -0.27174377 -1.2456055 -0.7256012c-0.77941895 -0.45402527 -1.5406494 -0.8521271 -2.2838745 -1.1942902c-0.7388916 -0.3468628 -1.472168 -0.6101074 -2.1998901 -0.7897339c-0.72772217 -0.17962646 -1.4580688 -0.25491333 -2.191101 -0.22584534c-1.4343872 0.056854248 -2.628662 0.45542908 -3.5827637 1.195694c-0.9540405 0.74028015 -1.7159424 1.6428986 -2.2855225 2.7078247c-0.5651245 1.0647583 -0.96203613 2.1976318 -1.190918 3.3986206c-0.2290039 1.1964569 -0.32226562 2.3308868 -0.27972412 3.4032898c0.03387451 0.8551941 0.21130371 1.8429413 0.5321045 2.963211c0.32086182 1.120285 0.7868042 2.184967 1.3978271 3.1940308c0.61535645 1.0043793 1.3842773 1.8802948 2.3067017 2.6277618c0.92700195 0.7472992 2.0148926 1.0961914 3.263733 1.0466766c1.0181274 -0.040359497 2.0117798 -0.2406311 2.980896 -0.6008148c0.9735718 -0.36489868 1.8908691 -0.83180237 2.7520752 -1.400711c0.86553955 -0.5736084 1.6485596 -1.2277985 2.34906 -1.9625549c0.52111816 -0.54319763 1.0203857 -1.1375275 1.4978027 -1.7829742l0 0c0.032958984 0.06871033 0.075927734 0.16567993 0.12896729 0.2909088c0.099853516 0.23170471 0.20410156 0.5176239 0.31274414 0.8577423c0.112976074 0.3354187 0.24182129 0.6702118 0.3864746 1.0043793c0.14904785 0.32946777 0.3862915 0.655426 0.711792 0.97789c0.3255005 0.322464 0.7506714 0.47329712 1.2755737 0.45248413c0.42529297 -0.016860962 0.9102173 -0.1312561 1.454773 -0.34317017c0.5443115 -0.21646118 0.79681396 -0.8201599 0.7575073 -1.8111115c-0.22332764 -0.37635803 -0.39605713 -0.9609375 -0.51812744 -1.7537384c-0.11755371 -0.79296875 -0.25439453 -1.78685 -0.41052246 -2.9816284c-0.15179443 -1.1994934 -0.30371094 -2.5168152 -0.4557495 -3.9519653c-0.15228271 -1.4396667 -0.3425293 -2.9231567 -0.57073975 -4.4504547c-0.22369385 -1.5274811 -0.4897461 -3.0374146 -0.79815674 -4.5298157c-0.30859375 -1.4969177 -0.6864624 -2.9117737 -1.1335449 -4.244583c-0.44732666 -1.3373413 -0.9795532 -2.5308228 -1.5967407 -3.580429c-0.6173096 -1.0541534 -1.4686279 -1.9517212 -2.554016 -2.6927338zm-119.680725 17.95256c-1.4072571 0.055786133 -2.8067017 0.30841064 -4.198303 0.757843c-1.3872986 0.44474792 -2.641449 1.1040192 -3.7624512 1.9778137c-1.1166687 0.8690796 -2.0125122 1.9356232 -2.6875305 3.1996155c-0.6706848 1.2592773 -0.9732971 2.7147217 -0.9078064 4.3663025c0.055236816 1.3936615 0.34561157 2.6601715 0.8711853 3.79953c0.5299072 1.1346436 1.2403259 2.078598 2.131256 2.8318481c0.8954468 0.7530823 1.9241943 1.3241119 3.0862122 1.7131195c1.1663513 0.38430786 2.4259949 0.5496521 3.7789612 0.49601746c1.316742 -0.052200317 2.5979004 -0.315979 3.8434753 -0.7913666c1.245575 -0.4753723 2.3566895 -1.1425629 3.333252 -2.0015717c0.9811096 -0.85917664 1.7487183 -1.9025116 2.3027954 -3.1299896c0.55410767 -1.2274628 0.8010254 -2.6013794 0.7407532 -4.12175c-0.026550293 -0.66967773 -0.14422607 -1.3516083 -0.35299683 -2.0457916c-0.20446777 -0.69888306 -0.48971558 -1.3787079 -0.85583496 -2.0394592c-0.36608887 -0.66075134 -0.79696655 -1.2985535 -1.2926636 -1.9133759c-0.49572754 -0.61483765 -1.0634155 -1.1588287 -1.7030029 -1.6319885c-0.6351013 -0.4733429 -1.3091736 -0.8431854 -2.0222168 -1.1094971c-0.7131958 -0.2708435 -1.4815674 -0.38993835 -2.3050842 -0.3572998zm20.321259 -0.8055115c-1.4072571 0.055770874 -2.8067017 0.3083954 -4.198303 0.757843c-1.3872681 0.44473267 -2.641449 1.1040039 -3.7624817 1.9777985c-1.1166687 0.8690796 -2.0125427 1.9356232 -2.6875305 3.1996155c-0.6706543 1.2592926 -0.9732666 2.7147217 -0.9078064 4.3663025c0.055267334 1.3936615 0.3456726 2.6601715 0.8712158 3.79953c0.5299072 1.1346588 1.2403259 2.078598 2.131256 2.8318634c0.8954773 0.753067 1.9241943 1.3240967 3.0862122 1.7131195c1.1663818 0.3842926 2.4260254 0.54963684 3.7789307 0.4960022c1.316742 -0.05218506 2.5979004 -0.315979 3.8435059 -0.7913666c1.245575 -0.4753723 2.356659 -1.1425629 3.333252 -2.0015717c0.9811096 -0.85917664 1.7487183 -1.9025116 2.3027954 -3.1299744c0.55407715 -1.227478 0.8010254 -2.6013947 0.7407532 -4.12175c-0.026550293 -0.669693 -0.14422607 -1.3516235 -0.35302734 -2.045807c-0.20443726 -0.69888306 -0.48971558 -1.3787079 -0.85580444 -2.0394592c-0.36608887 -0.66075134 -0.79696655 -1.2985535 -1.2926941 -1.9133759c-0.49569702 -0.6148224 -1.063385 -1.1588287 -1.7030029 -1.6319885c-0.6351013 -0.4733429 -1.3091431 -0.84317017 -2.0221863 -1.1094971c-0.7132263 -0.27082825 -1.4815979 -0.38993835 -2.3050842 -0.35728455zm30.935638 -1.5933685c-0.7103882 0.028152466 -1.4105225 0.20092773 -2.1004028 0.5183258c-0.6898804 0.31739807 -1.3436279 0.69000244 -1.9611206 1.1178284c-0.6174927 0.42782593 -1.1998291 0.8859863 -1.7469482 1.374466c-0.54278564 0.4837799 -1.0170898 0.924057 -1.4227905 1.3208313c-0.3269043 0.31925964 -0.57385254 0.5692291 -0.74090576 0.74993896c-0.25769043 -0.32484436 -0.5630493 -0.67303467 -0.91589355 -1.0445709c-0.5118408 -0.56433105 -1.0734863 -1.0133972 -1.6849365 -1.3471832c-0.6069336 -0.33396912 -1.2714844 -0.57728577 -1.9935303 -0.7299347c-0.7223511 -0.15718079 -1.5133057 -0.21873474 -2.3730469 -0.18466187c-0.511322 0.02027893 -0.9677429 0.054229736 -1.3691406 0.101867676c-0.39694214 0.047454834 -0.78656006 0.16487122 -1.1688843 0.3522339c-0.3074646 0.14859009 -0.6147461 0.3391266 -0.9218445 0.57164c0.001159668 -0.07757568 -9.1552734E-5 -0.16297913 -0.0037841797 -0.2562256l0 0c-0.3373413 0.39007568 -0.48223877 0.5841675 -0.4347229 0.58229065c0.024505615 -9.765625E-4 0.10018921 -0.054107666 0.22714233 -0.15937805c0.07043457 -0.057769775 0.14086914 -0.11332703 0.21136475 -0.16668701l0 0c-0.0056762695 0.37919617 -0.06945801 0.5711975 -0.19137573 0.57603455c-0.07336426 0.00289917 -0.16781616 -0.062088013 -0.28341675 -0.1949768c-0.39782715 -0.54618835 -0.98135376 -0.80404663 -1.7505493 -0.7735596l-0.7398071 0.029327393c-0.11682129 0.253891 -0.22793579 0.4237213 -0.333313 0.50946045c-0.10534668 0.085754395 -0.22668457 0.2831726 -0.36401367 0.5922699c0.007537842 0.19003296 0.013458252 0.33935547 0.01776123 0.44795227c0.0043029785 0.1085968 0.0026245117 0.23783875 -0.005004883 0.3876953c-0.007659912 0.14985657 -0.008544922 0.29943848 -0.0026245117 0.448761c0.00592041 0.14932251 0.0099487305 0.25112915 0.0121154785 0.30543518c0.039642334 1.0 0.11087036 1.9398346 0.21374512 2.8194885c0.10266113 0.8751373 0.20477295 1.7367096 0.30636597 2.5846863c0.101623535 0.84799194 0.19125366 1.7372437 0.2689209 2.6677551c0.07766724 0.9305115 0.112579346 1.9828186 0.10473633 3.1569061c0.08456421 0.30482483 0.17858887 0.6183319 0.28201294 0.9405365c0.107940674 0.32202148 0.2609253 0.6377411 0.4590149 0.9471283c0.1979065 0.30485535 0.46450806 0.57073975 0.7998047 0.7976532c0.3397827 0.22671509 0.75405884 0.33039856 1.2427673 0.3110199c0.90948486 -0.03604126 1.425415 -0.3397522 1.5477905 -0.9111023c0.1269226 -0.5715332 0.18139648 -1.0835419 0.16345215 -1.536026c-0.0435791 -1.0995483 -0.16073608 -2.1689758 -0.35150146 -3.208313c-0.19076538 -1.0393219 -0.30685425 -2.0816193 -0.34829712 -3.1268616c-0.023468018 -0.5927582 0.041870117 -1.1731873 0.19610596 -1.7412567c0.15405273 -0.5726166 0.37197876 -1.0774994 0.65374756 -1.514679c0.2862854 -0.4373474 0.6486206 -0.78707886 1.0868835 -1.0491791c0.43829346 -0.26210022 0.9492798 -0.40472412 1.532959 -0.42785645c0.7194824 -0.028518677 1.3325806 0.17604065 1.8394165 0.613678c0.5065918 0.43312073 0.96832275 1.0470276 1.3850098 1.8417358c0.42126465 0.79452515 0.7893677 1.6772766 1.1043091 2.6482391c0.319458 0.97076416 0.63079834 1.9078827 0.93395996 2.811325c0.30322266 0.9034424 0.67333984 1.7226562 1.1103516 2.4576416c0.4413452 0.73028564 1.0782471 1.0789337 1.9108887 1.045929c0.8642578 -0.03425598 1.3893433 -0.33605957 1.5752563 -0.9053955c0.19024658 -0.57403564 0.27685547 -1.0759888 0.25976562 -1.5058594c-0.020935059 -0.5294037 -0.11743164 -1.0195618 -0.2894287 -1.4704895c-0.17211914 -0.45542908 -0.34039307 -0.87023926 -0.50476074 -1.2444153c-0.16436768 -0.37416077 -0.3121338 -0.7286072 -0.4432373 -1.0633087c-0.13128662 -0.33921814 -0.203125 -0.6649475 -0.2154541 -0.9771576c-0.0256958 -0.6470642 0.13964844 -1.2790375 0.4958496 -1.8959045c0.36206055 -0.6986847 0.84265137 -1.3227539 1.4417725 -1.8722076c0.60357666 -0.5496521 1.2520142 -0.9990845 1.9451294 -1.3483429c0.69744873 -0.35394287 1.3493652 -0.54293823 1.9557495 -0.5669708c0.56103516 -0.022247314 1.0895996 0.21966553 1.5855103 0.72572327c0.50024414 0.5013428 0.9476929 1.156601 1.3423462 1.9657898c0.39465332 0.8091736 0.6998291 1.6490936 0.9156494 2.5197449c0.21575928 0.87065125 0.35864258 1.5606537 0.42871094 2.069992c0.0025024414 0.06333923 -0.002319336 0.28334045 -0.014587402 0.65997314c-0.007751465 0.37646484 -0.030273438 0.7807007 -0.06750488 1.2127228c-0.037475586 0.42749023 -0.07092285 0.8412323 -0.1003418 1.2412109c-0.024963379 0.39979553 -0.036193848 0.6313782 -0.033691406 0.69473267l-0.03100586 0.24595642c0.006286621 0.15837097 0.01184082 0.29864502 0.016662598 0.42080688c0.0048828125 0.122177124 0.0031738281 0.2514038 -0.005004883 0.3876953c-0.008178711 0.13627625 -0.010131836 0.25871277 -0.005859375 0.36730957c0.0075683594 0.19004822 0.015686035 0.39593506 0.024475098 0.6176605c0.008605957 0.2171936 0.06774902 0.4505005 0.17730713 0.6999512c0.109436035 0.24491882 0.29052734 0.46887207 0.5432739 0.67185974c0.25280762 0.20298767 0.60998535 0.29533386 1.0714722 0.27703857c0.8416748 -0.03337097 1.4336548 -0.41938782 1.776001 -1.158081c0.34210205 -0.74320984 0.5638428 -1.4952545 0.6651001 -2.2561035c0.105651855 -0.76556396 0.15161133 -1.4924927 0.13787842 -2.1808167c-0.009338379 -0.6930237 -0.019470215 -1.1775513 -0.030395508 -1.4535675c-0.02960205 -0.74661255 -0.12756348 -1.5607452 -0.2939453 -2.4424286c-0.16186523 -0.8818512 -0.4053955 -1.7672577 -0.7307129 -2.6562347c-0.32073975 -0.8891449 -0.715271 -1.7527161 -1.1835938 -2.5906982c-0.46826172 -0.8379822 -1.0308228 -1.5951996 -1.687561 -2.2716217c-0.6569214 -0.6809387 -1.4081421 -1.224472 -2.253601 -1.6305542c-0.845459 -0.4060974 -1.802063 -0.5879669 -2.869995 -0.54563904zm-94.224976 -8.011902c-0.5746765 0.022781372 -0.98083496 0.06607056 -1.2184753 0.12988281c-0.2331543 0.06362915 -0.4607849 0.15196228 -0.68289185 0.2649994c-0.22210693 0.11303711 -0.46948242 0.27467346 -0.742157 0.48487854c-0.27282715 0.20568848 -0.40109253 0.51441956 -0.38476562 0.92619324l0.009429932 0.23754883c0.14434814 0.6695404 0.26867676 1.2333832 0.37295532 1.6915131c0.09954834 0.45378113 0.2121582 0.8934479 0.33779907 1.3190155c0.12997437 0.42085266 0.26663208 0.89582825 0.40997314 1.4249268c0.14334106 0.52908325 0.338562 1.16716 0.5857239 1.9141998c0.5012207 1.897171 0.90145874 3.762085 1.2006836 5.594742c0.30358887 1.8279572 0.546875 3.5631256 0.72979736 5.2055206c0.18728638 1.63768 0.34228516 3.1474915 0.46505737 4.529419c0.1227417 1.3819275 0.24502563 2.5803223 0.3668518 3.5951843c0.12615967 1.0101776 0.32928467 1.9039917 0.6093445 2.6814423c0.24005127 0.66641235 0.66122437 0.9876709 1.2634888 0.9637909c0.10040283 -0.003967285 0.20581055 -0.017547607 0.31622314 -0.04069519c0.38912964 -0.015426636 0.77731323 -0.11238098 1.1645203 -0.29089355c0.38720703 -0.17849731 0.7184143 -0.6266937 0.9935913 -1.3445892c-0.007873535 -0.19909668 -0.014801025 -0.37330627 -0.020721436 -0.5226288c-0.006072998 -0.15383911 -0.0061035156 -0.32606506 -6.1035156E-5 -0.51664734c0.0060424805 -0.19058228 0.005645752 -0.37184143 -0.001159668 -0.5437927c-0.007019043 -0.1764679 -0.01159668 -0.29185486 -0.01373291 -0.34614563c-0.026367188 -0.66516113 -0.12994385 -1.5062714 -0.3107605 -2.5233307c-0.17630005 -1.0172424 -0.3534546 -2.0571136 -0.5315552 -3.1195984c-0.17825317 -1.0670166 -0.3477478 -2.0845337 -0.5084839 -3.052536c-0.15618896 -0.9681854 -0.24542236 -1.7328339 -0.26766968 -2.2939148c0 0 0.0038452148 -0.074920654 0.011474609 -0.22479248c0.0030517578 -0.059570312 0.0061950684 -0.08943176 0.009460449 -0.08955383c0.00491333 -1.9836426E-4 0.010070801 0.067840576 0.01550293 0.20413208c0.17596436 -0.13386536 0.41375732 -0.30871582 0.7133789 -0.5245209c0.27844238 -0.1787262 0.5288086 -0.32234192 0.75109863 -0.43086243c0.22210693 -0.11303711 0.4386902 -0.19413757 0.64974976 -0.24328613c0.21087646 -0.05368042 0.4769287 -0.086883545 0.7982178 -0.099624634c0.81448364 -0.032287598 1.5145874 0.080459595 2.1004028 0.33821106c0.5857849 0.25776672 1.0807495 0.62564087 1.4848938 1.1036072c0.4085083 0.47325134 0.7328186 1.0518188 0.9729309 1.7357025c0.24465942 0.68370056 0.3824768 1.4169464 0.41351318 2.1997528c0.023498535 0.5927582 0.042816162 1.2514038 0.057922363 1.9759216c0.015136719 0.7245178 0.017303467 1.4654083 0.0065307617 2.2226868c-0.010925293 0.7527313 -0.028503418 1.5102692 -0.05267334 2.2726135c-0.02432251 0.75779724 -0.054229736 1.6042023 -0.08969116 2.5391998c0.77963257 0.88142395 1.4909668 1.3093872 2.1340027 1.283905c0.10443115 -0.004135132 0.20706177 -0.020233154 0.30789185 -0.048294067c0.7218628 -0.19628906 1.2261658 -0.67855835 1.51297 -1.4467621c0.2866211 -0.7727356 0.4751892 -1.6752777 0.5656738 -2.7076263c0.09033203 -1.0368805 0.07577515 -2.146637 -0.04360962 -3.3292847c-0.119384766 -1.1826477 -0.32409668 -2.40271 -0.61413574 -3.6601715c-0.28552246 -1.2576447 -0.68182373 -2.4519653 -1.1889038 -3.5829926c-0.5071106 -1.1310272 -1.1460876 -2.1593933 -1.9169617 -3.085083c-0.7665405 -0.9303894 -1.6751404 -1.6149597 -2.72583 -2.053711c-0.8815918 -0.37361145 -1.8514404 -0.53944397 -2.9095154 -0.49749756c-0.19778442 0.007843018 -0.39865112 0.02293396 -0.6025696 0.045288086c-1.2861633 0.14100647 -2.3016052 0.4590149 -3.0462646 0.95402527c-0.0061950684 -0.07116699 -0.015289307 -0.1672821 -0.027252197 -0.28834534c-0.045440674 -0.46046448 -0.10418701 -0.91360474 -0.17623901 -1.3594055c-0.07223511 -0.4503479 -0.16082764 -0.91362 -0.26583862 -1.3898621c-0.105163574 -0.4807434 -0.27120972 -1.0678558 -0.4980774 -1.761322c-0.22238159 -0.6936493 -0.51071167 -1.5070343 -0.8648987 -2.4401855c-0.34988403 -0.93785095 -0.89193726 -2.2646332 -1.6261597 -3.9803467zm139.35559 5.407196c-0.82354736 0.03263855 -1.6224365 0.22972107 -2.3966675 0.59124756c-0.77441406 0.35699463 -1.4802246 0.7294159 -2.1174927 1.1172333c-0.63739014 0.38328552 -1.1907349 0.7156677 -1.6599731 0.9971161c-0.27368164 0.16566467 -0.50683594 0.2841339 -0.6993408 0.3554077c-0.061340332 -0.115219116 -0.16668701 -0.2542572 -0.315979 -0.41712952c-0.20410156 -0.23210144 -0.5233154 -0.33953857 -0.95770264 -0.32232666c-0.32580566 0.012908936 -0.6914673 0.10671997 -1.0969238 0.28141785c-0.40545654 0.17468262 -0.59552 0.5832977 -0.5700073 1.2258301c0.02368164 0.59729004 0.056396484 1.4230804 0.09820557 2.4773712c0.041748047 1.054306 0.1204834 2.1819153 0.23602295 3.382843c0.11993408 1.196228 0.2952881 2.4197083 0.5261841 3.670456c0.23083496 1.2507324 0.53460693 2.3966217 0.9112549 3.4376526c0.38098145 1.0363159 0.90582275 1.9287109 1.5744629 2.6771698c0.6687012 0.74845886 1.8084717 1.0907745 3.4193115 1.0269165c-0.059509277 -1.5022583 -0.19311523 -2.7002106 -0.40075684 -3.5938416c-0.2033081 -0.89834595 -0.42370605 -1.7710724 -0.6612549 -2.6182098c-0.2374878 -0.84713745 -0.45166016 -1.677063 -0.6425171 -2.4897919c-0.1864624 -0.8174286 -0.29522705 -1.6175385 -0.32629395 -2.4003448c-0.03100586 -0.7828064 0.074645996 -1.4894562 0.31707764 -2.1199493c0.24224854 -0.63500977 0.58099365 -1.1786804 1.0162354 -1.631012c0.43981934 -0.4524994 0.9696045 -0.8066101 1.5894165 -1.0623016c0.6195679 -0.2602234 1.2981567 -0.404953 2.0357666 -0.43418884c0.6515503 -0.02583313 1.3212891 0.29205322 2.0092163 0.9536438c0.68774414 0.657074 1.31073 1.6248779 1.8689575 2.9034271c0.5626221 1.2738495 0.99658203 2.7884674 1.3018188 4.5438385c0.3050537 1.7508545 0.37835693 3.6581879 0.2199707 5.721985c0.018859863 0.47511292 0.16485596 0.78656006 0.43811035 0.9343567c0.27764893 0.14308167 0.5148926 0.24017334 0.711792 0.29129028c0.19683838 0.051116943 0.38391113 0.082214355 0.5610962 0.093322754c0.18151855 0.0064086914 0.31304932 0.007980347 0.3944702 0.004760742c0.6561279 -0.026016235 1.1361084 -0.32148743 1.4400635 -0.8864441c0.30841064 -0.5651245 0.50372314 -1.1257782 0.5859375 -1.6819305c0.08666992 -0.55633545 0.14019775 -1.0932312 0.16046143 -1.6106873c0.024597168 -0.52215576 0.03161621 -0.9167175 0.021057129 -1.1836853c-0.02960205 -0.7465973 -0.13665771 -1.6192932 -0.32128906 -2.6180878c-0.18011475 -0.9989624 -0.44714355 -2.019394 -0.80114746 -3.061325c-0.34973145 -1.0466156 -0.7734375 -2.0744476 -1.2711182 -3.0834808c-0.49316406 -1.0092163 -1.0893555 -1.9282379 -1.7883911 -2.75708c-0.69921875 -0.83335876 -1.50531 -1.5038605 -2.418213 -2.0115204c-0.90856934 -0.51234436 -1.9058838 -0.7470093 -2.9918213 -0.703949zm-153.3021 -0.530838c-0.8642578 0.03425598 -1.8064575 0.1599884 -2.8266296 0.37716675c-1.0203247 0.21266174 -1.9833374 0.55674744 -2.8890076 1.0322418c-0.90130615 0.47080994 -1.6690674 1.1107941 -2.3031921 1.9199677c-0.63430786 0.8046417 -0.92678833 1.8291321 -0.8774719 3.073471c0.022949219 0.5791931 0.1387024 1.1546936 0.34716797 1.726532c0.21298218 0.5716553 0.4857483 1.1069489 0.8182373 1.6058807c0.3324585 0.49893188 0.7378235 0.94966125 1.2160339 1.3521881c0.47805786 0.39797974 0.9691467 0.7252197 1.4732971 0.98168945l12.363586 6.124359c0.35107422 0.1673584 0.60650635 0.3226471 0.76623535 0.4658661c0.16409302 0.13851929 0.27600098 0.2745819 0.33569336 0.4081726c0.06402588 0.12889099 0.109954834 0.31515503 0.13772583 0.55877686c0.032104492 0.23892212 0.055358887 0.53938293 0.06970215 0.9013672c0.039642334 0.54226685 -0.13409424 0.9615631 -0.5211792 1.2578888c-0.38253784 0.29615784 -0.9349365 0.53785706 -1.657135 0.72509766c-0.722229 0.18725586 -1.5129395 0.30470276 -2.3721313 0.35235596c-0.8546753 0.047470093 -1.5439148 0.095184326 -2.0677185 0.1431427c-1.5776978 -0.014511108 -3.0648804 -0.08924866 -4.4615784 -0.2242279c-1.3237305 -0.12426758 -2.486145 -0.4090271 -3.4872437 -0.85427856c-1.0010986 -0.4452362 -1.788269 -1.0960999 -2.3615112 -1.9525757c-0.5732422 -0.8564911 -0.9031067 -2.375229 -0.989563 -4.5562134c-1.0588379 0.04196167 -1.779602 0.20877075 -2.162323 0.50038147c-0.37835693 0.28692627 -0.68255615 0.6162262 -0.91256714 0.9878998c-0.22546387 0.37149048 -0.3982544 0.75675964 -0.5184021 1.1558075c-0.12033081 0.39453125 -0.1716919 0.8135071 -0.15411377 1.2569427c0.3774414 1.2902527 1.0327759 2.388214 1.9660034 3.293869c0.93777466 0.90548706 2.02417 1.673645 3.2592163 2.3044891c1.2348633 0.62631226 2.5819092 1.1099548 4.0411377 1.4509277c1.4590454 0.3364563 2.9221191 0.54585266 4.389221 0.6281738c0.7720947 0.04548645 1.5327148 0.053375244 2.2818604 0.023666382c0.67892456 -0.026901245 1.3484497 -0.08468628 2.0085144 -0.17333984c1.3886414 -0.18193054 2.665039 -0.50897217 3.8291626 -0.98114014c1.163971 -0.4766693 2.1392212 -1.1407471 2.9257507 -1.992218c0.79089355 -0.85617065 1.242279 -1.8733673 1.3542175 -3.05159c0.11642456 -1.1784058 -0.10336304 -2.2075043 -0.6594238 -3.0873413c-0.5562439 -0.88435364 -1.2810364 -1.6759033 -2.1743164 -2.3746796c-0.89331055 -0.69877625 -1.9058228 -1.318039 -3.0375671 -1.8578033c-1.1274109 -0.54447937 -2.2695618 -1.0611725 -3.4264526 -1.5500793c-1.1524048 -0.48910522 -2.2813416 -0.958725 -3.3868713 -1.4088898c-1.1011658 -0.4548645 -2.0761108 -0.92607117 -2.9247742 -1.41362c-0.84887695 -0.49205017 -1.4934692 -0.9763489 -1.9338379 -1.4528809c-0.43600464 -0.4812317 -0.66433716 -0.9820404 -0.68496704 -1.5023956c-0.01864624 -0.4705963 0.16293335 -0.8630066 0.54473877 -1.1772614c0.38619995 -0.3189392 0.9218445 -0.5826416 1.6069641 -0.79107666c0.68515015 -0.20843506 1.4136047 -0.35287476 2.1853638 -0.4333191c0.77615356 -0.0851593 1.4266663 -0.13813782 1.9515381 -0.15893555c0.11947632 -0.016067505 0.23760986 -0.026412964 0.35440063 -0.031051636c0.3503723 -0.013885498 0.68878174 0.02368164 1.0152283 0.112716675c0.4352417 0.11871338 0.87280273 0.29623413 1.3127441 0.5325928c0.43969727 0.23182678 0.88449097 0.47705078 1.3343506 0.735672c0.44985962 0.25862122 0.90579224 0.49887085 1.3677979 0.7207489c0.4619751 0.22187805 0.964447 0.3787079 1.5073853 0.4704895c0.102142334 0.017089844 0.20947266 0.023406982 0.32192993 0.018951416c0.490448 -0.019439697 1.0792236 -0.24369812 1.7663269 -0.67276c-0.044647217 -1.1266937 -0.29312134 -1.964325 -0.74542236 -2.5128937c-0.4477539 -0.54875183 -0.975647 -1.0036926 -1.5836182 -1.3648071c-0.6036682 -0.3658142 -1.2698975 -0.65211487 -1.9986877 -0.8588867c-0.72875977 -0.20678711 -1.448883 -0.36631775 -2.1603394 -0.47860718c-0.7114258 -0.11228943 -1.3830566 -0.19216919 -2.0148926 -0.23963928c-0.62731934 -0.04763794 -1.1468201 -0.063308716 -1.5585938 -0.04698181z" fill-rule="evenodd"></path></g></svg>

